<svg width="334" height="340" viewBox="0 0 334 340" fill="none" xmlns="http://www.w3.org/2000/svg">
<g clip-path="url(#clip0_1377_3647)">
<path d="M0.111055 -0.0195312V245.997H0V339.112H335.3V-0.0195312H0.111055Z" fill="url(#paint0_linear_1377_3647)"/>
<path d="M335.608 153.882H316.799V159.647H335.608V153.882Z" fill="#3F2403"/>
<path d="M335.608 96.8298V153.882H316.799C319.909 153.882 322.428 152.206 322.428 150.141C322.428 149.409 322.11 148.723 321.559 148.147C321.155 147.718 320.994 147.102 321.155 146.537C321.251 146.209 321.307 145.866 321.307 145.507C321.307 144.553 320.938 143.68 320.328 142.988C319.803 142.398 319.681 141.565 320.04 140.863C320.227 140.495 320.333 140.091 320.333 139.667C320.333 138.899 319.994 138.203 319.444 137.668C318.985 137.229 318.753 136.582 318.944 135.977C318.995 135.825 319.015 135.664 319.015 135.497C319.015 134.467 318.021 133.634 316.799 133.634C315.577 133.634 314.583 134.467 314.583 135.497C314.583 135.664 314.608 135.825 314.659 135.977C314.851 136.582 314.618 137.229 314.159 137.668C313.609 138.198 313.271 138.899 313.271 139.667C313.271 140.091 313.377 140.5 313.563 140.863C313.917 141.565 313.801 142.398 313.276 142.988C312.665 143.68 312.296 144.553 312.296 145.507C312.296 145.861 312.352 146.209 312.443 146.537C312.609 147.102 312.443 147.718 312.039 148.147C311.489 148.723 311.176 149.409 311.176 150.141C311.176 152.206 313.695 153.882 316.804 153.882H297.203V130.873L302.301 131.232L305.694 131.469V78.7026L335.618 96.8248L335.608 96.8298Z" fill="#FBA001"/>
<path d="M335.608 92.6654V96.83L305.683 78.7028V74.2354L335.608 92.6654Z" fill="#FBA001"/>
<path d="M316.799 153.882C313.69 153.882 311.171 152.206 311.171 150.141C311.171 149.409 311.489 148.723 312.034 148.147C312.443 147.718 312.604 147.102 312.438 146.537C312.342 146.209 312.291 145.865 312.291 145.507C312.291 144.553 312.66 143.68 313.271 142.988C313.796 142.398 313.917 141.565 313.558 140.863C313.371 140.494 313.266 140.091 313.266 139.667C313.266 138.899 313.604 138.203 314.154 137.668C314.613 137.228 314.846 136.582 314.654 135.977C314.603 135.825 314.578 135.664 314.578 135.497C314.578 134.467 315.572 133.634 316.794 133.634C318.016 133.634 319.01 134.467 319.01 135.497C319.01 135.664 318.985 135.825 318.939 135.977C318.748 136.582 318.98 137.228 319.439 137.668C319.989 138.198 320.328 138.899 320.328 139.667C320.328 140.091 320.222 140.499 320.035 140.863C319.681 141.565 319.798 142.398 320.323 142.988C320.933 143.68 321.302 144.553 321.302 145.507C321.302 145.86 321.246 146.209 321.15 146.537C320.989 147.102 321.15 147.718 321.554 148.147C322.104 148.723 322.422 149.409 322.422 150.141C322.422 152.206 319.904 153.882 316.794 153.882H316.799Z" fill="#FBD867"/>
<path d="M316.794 153.882H297.193V159.647H316.794V153.882Z" fill="#3F2403"/>
<path d="M305.683 98.7079V126.734L302.291 124.235V96.2646L305.683 98.7079Z" fill="#FBD867"/>
<path d="M305.683 126.734V131.469L302.291 131.231V124.235L305.683 126.734Z" fill="#FCB708"/>
<path d="M305.683 78.7026V98.7077L302.291 96.2644V79.4901V79.4851L305.683 78.7026Z" fill="#F4EBD2"/>
<path d="M296.239 80.8835L290.358 82.2414L284.669 83.5539L280.252 80.3736L268.975 83.0894V83.0693L276.87 81.1712L305.683 74.2354V78.7028L302.291 79.4852V79.4903L296.239 80.8835Z" fill="#F4EBD2"/>
<path d="M302.291 124.235V131.232L297.193 130.873L296.239 130.949V119.763L302.291 124.235Z" fill="#FCB708"/>
<path d="M302.291 96.2644V124.235L296.239 119.763V91.8979L302.291 96.2644Z" fill="#FBD867"/>
<path d="M302.291 79.4902V96.2646L296.239 91.8981V80.8835L302.291 79.4902Z" fill="#F4EBD2"/>
<path d="M297.198 153.882H255.875V159.647H297.198V153.882Z" fill="#FB9306"/>
<path d="M278.526 132.382L284.482 131.903L290.358 131.428L296.239 130.954L297.198 130.878V153.886H255.875V134.22L268.98 133.16L272.478 132.877L278.526 132.387V132.382ZM269.848 150.605V136.284H268.177V150.605H269.848ZM266.335 150.868V136.547H264.664V150.868H266.335ZM259.591 151.135V136.814H257.92V151.135H259.591Z" fill="#FBD867"/>
<path d="M296.239 119.763V130.949L290.358 131.429V131.424V115.427L296.239 119.763Z" fill="#FCB708"/>
<path d="M296.239 91.898V119.763L290.358 115.426V87.6577L296.239 91.898Z" fill="#FBD867"/>
<path d="M296.239 80.8833V91.8979L290.358 87.6576V82.2412L296.239 80.8833Z" fill="#F4EBD2"/>
<path d="M290.358 131.423V131.428L284.482 131.903V131.898V111.085L290.358 115.426V131.423Z" fill="#FCB708"/>
<path d="M290.358 87.6582V115.427L284.482 111.086V83.5946L284.669 83.5542L290.358 87.6582Z" fill="#FBD867"/>
<path d="M290.358 82.2417V87.6581L284.669 83.5542L290.358 82.2417Z" fill="#F4EBD2"/>
<path d="M284.669 83.5542L284.482 83.5946L278.525 84.9727L272.478 86.3659L268.975 87.1736V83.0898L280.252 80.374L284.669 83.5542Z" fill="#FBD867"/>
<path d="M284.482 131.898V131.903L278.525 132.383V106.688L284.482 111.085V131.898Z" fill="#FCB708"/>
<path d="M284.482 83.5947V111.086L278.525 106.689V84.9728L284.482 83.5947Z" fill="#FBD867"/>
<path d="M278.526 106.688V132.383L272.478 132.872V102.226L278.526 106.688Z" fill="#FCB708"/>
<path d="M278.526 84.9727V106.689L272.478 102.227V86.3659L278.526 84.9727Z" fill="#FBD867"/>
<path d="M276.87 77.0774V81.1713L268.975 83.0694V83.0896L268.97 83.0946V99.6367L268.975 99.6418V133.155L255.875 134.215V153.882L237.986 153.438L237.829 130.717L246.976 131.262V126.446V106.987V78.9603V58.4404L276.87 77.0774Z" fill="#FBA001"/>
<path d="M276.87 68.7889V77.0776L246.976 58.4406V50.1519L276.87 68.7889Z" fill="#FB9306"/>
<path d="M272.478 102.226V132.872L268.975 133.155V99.6416L272.478 102.226Z" fill="#FCB708"/>
<path d="M272.478 86.3657V102.226L268.975 99.6418V87.1734L272.478 86.3657Z" fill="#FBD867"/>
<path d="M269.848 136.28H268.177V150.601H269.848V136.28Z" fill="#FB9306"/>
<path d="M268.975 87.1731V99.6416L268.97 99.6365V83.0944L268.975 83.0894V87.1731Z" fill="#2155AB"/>
<path d="M266.335 136.547H264.664V150.868H266.335V136.547Z" fill="#FB9306"/>
<path d="M259.591 136.814H257.92V151.135H259.591V136.814Z" fill="white"/>
<path d="M255.875 159.647H238.021L237.986 153.438L255.875 153.882V159.647Z" fill="#3F2403"/>
<path d="M246.976 78.96V106.986L237.274 99.803V71.9282L246.976 78.96Z" fill="#FBD867"/>
<path d="M246.976 126.446V131.262L237.829 130.717V125.75L237.89 125.745L246.976 126.446Z" fill="#3F2403"/>
<path d="M237.829 125.75L237.279 125.805L237.274 125.79V99.8032L246.976 106.986V126.446L237.89 125.745L237.829 125.75Z" fill="#FCB708"/>
<path d="M246.976 58.4404V78.9603L237.274 71.9285V61.9639L246.976 58.4404Z" fill="#F4EBD2"/>
<path d="M237.274 61.9641L228.112 65.2907L220.484 59.7682L246.976 50.1519V58.4406L237.274 61.9641Z" fill="#F4EBD2"/>
<path d="M209.444 153.862L213.876 153.796L218.253 153.731L222.948 153.665L227.698 153.589L232.554 153.519L237.98 153.438H237.985L238.021 159.647H193.513V154.104L197.314 154.049L201.176 153.988L205.335 153.928L209.444 153.862Z" fill="#FB9306"/>
<path d="M237.829 130.717L237.985 153.438H237.98L232.554 153.519V131.151L237.829 130.717Z" fill="#FBD867"/>
<path d="M227.698 126.754L237.279 125.805L237.829 125.75V130.717L232.554 131.151L227.698 131.545L222.948 131.938L218.253 132.322L213.876 132.68L209.444 133.044L207.693 133.185V128.743L210.464 128.465L218.253 127.693L227.698 126.754Z" fill="#FB9306"/>
<path d="M237.274 125.79L237.279 125.805L227.698 126.754V92.7061L237.274 99.8035V125.79Z" fill="#FCB708"/>
<path d="M237.274 71.9286V99.8033L227.693 92.7059V65.442L228.107 65.2905L237.269 71.9286H237.274ZM234.457 88.8897V78.5565L230.514 79.9245V90.2577L234.457 88.8897Z" fill="#FBD867"/>
<path d="M237.274 61.9634V71.928L228.112 65.29L237.274 61.9634Z" fill="#F4EBD2"/>
<path d="M234.457 78.5566V88.8898L230.514 90.2578V79.9246L234.457 78.5566Z" fill="#FB9306"/>
<path d="M232.554 131.151V153.518L227.698 153.589V131.545L232.554 131.151Z" fill="#FBD867"/>
<path d="M228.112 65.2904L227.698 65.4418L218.253 68.8694L210.464 71.6962V63.4075L220.484 59.7729L228.107 65.2954L228.112 65.2904ZM219.858 63.9577V62.6452L212.736 65.0935V66.406L219.858 63.9577Z" fill="#FBD867"/>
<path d="M227.698 131.544V153.589L222.948 153.665V131.938L227.698 131.544Z" fill="#FBD867"/>
<path d="M227.698 92.7054V126.754L218.253 127.693V85.709L227.698 92.7004V92.7054ZM224.104 125.229V115.27L220.161 115.724V125.684L224.104 125.229Z" fill="#FCB708"/>
<path d="M227.698 65.4419V92.7059L218.253 85.7144V68.8695L227.698 65.4419ZM224.947 79.8942V69.561L221.004 70.929V81.2622L224.947 79.8942Z" fill="#FBD867"/>
<path d="M224.947 69.561V79.8942L221.004 81.2622V70.929L224.947 69.561Z" fill="white"/>
<path d="M224.104 115.27V125.23L220.156 125.679V115.719L224.104 115.27Z" fill="#FB9306"/>
<path d="M222.948 131.938V153.665L218.253 153.73V132.322L222.948 131.938Z" fill="#FBD867"/>
<path d="M219.858 62.6455V63.958L212.736 66.4062V65.0938L219.858 62.6455Z" fill="#FB9306"/>
<path d="M218.253 132.322V153.731L213.876 153.796V132.681L218.253 132.322Z" fill="#FBD867"/>
<path d="M218.253 127.688L210.464 128.465V79.9443L213.271 82.0241V83.806L214.911 83.2356L218.253 85.7091V127.688ZM217.213 115.447V105.487L213.271 105.941V115.901L217.213 115.447ZM217.213 126.567V116.608L213.271 117.062V127.021L217.213 126.567Z" fill="#FCB708"/>
<path d="M218.253 68.8643V85.7093L214.911 83.2358L217.218 82.4382V72.105L213.276 73.473V82.0243L210.464 79.9445V71.6911L218.253 68.8643Z" fill="#FBD867"/>
<path d="M217.218 72.1055V82.4386L214.911 83.2362L213.276 82.0247V73.4735L217.218 72.1055Z" fill="#FB9306"/>
<path d="M217.218 105.487L217.213 115.447L213.276 115.896V105.937L217.218 105.487Z" fill="#FB9306"/>
<path d="M217.218 116.608L217.213 126.568L213.276 127.017V117.057L217.218 116.608Z" fill="white"/>
<path d="M213.276 82.0244L214.911 83.2359L213.276 83.8063V82.0244Z" fill="#FB9306"/>
<path d="M213.876 153.796L209.444 153.862V133.044L213.876 132.681V153.796Z" fill="#FBD867"/>
<path d="M209.444 133.044V153.862L205.335 153.927V133.377L207.693 133.185L209.444 133.044Z" fill="#FBD867"/>
<path d="M205.335 133.377V153.928L201.176 153.988V133.721L205.335 133.377Z" fill="#FBD867"/>
<path d="M201.176 133.721V153.988L197.314 154.049V134.039L201.176 133.721Z" fill="#FBD867"/>
<path d="M197.314 134.038V154.048L193.513 154.104V134.346L197.314 134.038Z" fill="#FBD867"/>
<path opacity="0.3" d="M305.683 78.627L335.608 96.7491" stroke="#3F2403" stroke-width="0.252397" stroke-miterlimit="10"/>
<path opacity="0.3" d="M284.583 83.4982L305.683 78.627" stroke="#3F2403" stroke-width="0.252397" stroke-miterlimit="10"/>
<path d="M268.975 87.0977L284.583 83.4985" stroke="white" stroke-width="0.267541" stroke-miterlimit="10"/>
<path opacity="0.3" d="M325.648 94.7656V152.191" stroke="#3F2403" stroke-width="0.252397" stroke-miterlimit="10"/>
<path opacity="0.3" d="M315.694 89.1724V133.089" stroke="#3F2403" stroke-width="0.252397" stroke-miterlimit="10"/>
<path opacity="0.3" d="M302.291 124.23V131.156" stroke="#3F2403" stroke-width="0.252397" stroke-miterlimit="10"/>
<path d="M302.291 96.2646V124.23" stroke="white" stroke-width="0.267541" stroke-miterlimit="10"/>
<path opacity="0.3" d="M302.291 79.4097V96.2648" stroke="#3F2403" stroke-width="0.252397" stroke-miterlimit="10"/>
<path opacity="0.3" d="M296.239 91.8981V80.7725" stroke="#3F2403" stroke-width="0.252397" stroke-miterlimit="10"/>
<path d="M296.239 119.763V91.8979" stroke="white" stroke-width="0.267541" stroke-miterlimit="10"/>
<path opacity="0.3" d="M296.239 130.878V119.763" stroke="#3F2403" stroke-width="0.252397" stroke-miterlimit="10"/>
<path opacity="0.3" d="M290.358 115.421V131.348" stroke="#3F2403" stroke-width="0.252397" stroke-miterlimit="10"/>
<path d="M290.358 87.688V115.421" stroke="white" stroke-width="0.267541" stroke-miterlimit="10"/>
<path opacity="0.3" d="M290.358 82.166V87.6885" stroke="#3F2403" stroke-width="0.252397" stroke-miterlimit="10"/>
<path opacity="0.3" d="M284.482 111.085V131.822" stroke="#3F2403" stroke-width="0.252397" stroke-miterlimit="10"/>
<path d="M284.482 83.5186V111.085" stroke="white" stroke-width="0.267541" stroke-miterlimit="10"/>
<path opacity="0.3" d="M278.525 106.688V132.317" stroke="#3F2403" stroke-width="0.252397" stroke-miterlimit="10"/>
<path d="M278.525 84.8965V106.688" stroke="white" stroke-width="0.267541" stroke-miterlimit="10"/>
<path opacity="0.3" d="M272.478 102.226V132.796" stroke="#3F2403" stroke-width="0.252397" stroke-miterlimit="10"/>
<path d="M272.478 86.29V102.226" stroke="white" stroke-width="0.267541" stroke-miterlimit="10"/>
<path d="M246.976 58.5161L276.87 77.148L276.865 75.5075L246.976 56.8755V58.5161Z" fill="#3F2403"/>
<path d="M246.976 56.8755L210.464 70.1364V71.7619L246.976 58.5161V56.8755Z" fill="#FB9306"/>
<path opacity="0.3" d="M197.314 134.033V153.973" stroke="#3F2403" stroke-width="0.252397" stroke-miterlimit="10"/>
<path opacity="0.3" d="M201.176 133.721V153.912" stroke="#3F2403" stroke-width="0.252397" stroke-miterlimit="10"/>
<path opacity="0.3" d="M205.335 133.377V153.852" stroke="#3F2403" stroke-width="0.252397" stroke-miterlimit="10"/>
<path opacity="0.3" d="M209.444 133.044V153.791" stroke="#3F2403" stroke-width="0.252397" stroke-miterlimit="10"/>
<path opacity="0.3" d="M213.876 132.681V153.72" stroke="#3F2403" stroke-width="0.252397" stroke-miterlimit="10"/>
<path opacity="0.3" d="M218.253 132.322V153.655" stroke="#3F2403" stroke-width="0.252397" stroke-miterlimit="10"/>
<path opacity="0.3" d="M222.948 131.934V153.589" stroke="#3F2403" stroke-width="0.252397" stroke-miterlimit="10"/>
<path opacity="0.3" d="M227.693 131.544V153.513" stroke="#3F2403" stroke-width="0.252397" stroke-miterlimit="10"/>
<path opacity="0.3" d="M232.554 131.151V153.443" stroke="#3F2403" stroke-width="0.252397" stroke-miterlimit="10"/>
<path d="M316.633 147.961C316.633 151.353 316.633 154.746 316.633 158.133V159.571C316.633 159.788 316.966 159.788 316.966 159.571C316.966 156.179 316.966 152.787 316.966 149.4V147.961C316.966 147.744 316.633 147.744 316.633 147.961Z" fill="white"/>
<path d="M316.915 151.292C317.465 150.762 318.01 150.232 318.561 149.702C318.636 149.627 318.717 149.551 318.793 149.475C318.949 149.324 318.712 149.092 318.556 149.238C318.005 149.768 317.46 150.298 316.91 150.828C316.834 150.904 316.754 150.979 316.678 151.055C316.521 151.207 316.759 151.439 316.915 151.292Z" fill="white"/>
<path opacity="0.3" d="M257.481 68.2388V133.958" stroke="#3F2403" stroke-width="0.252397" stroke-miterlimit="10"/>
<path opacity="0.3" d="M266.335 74.5938V133.251" stroke="#3F2403" stroke-width="0.252397" stroke-miterlimit="10"/>
<path opacity="0.3" d="M237.274 99.8032V125.714" stroke="#3F2403" stroke-width="0.252397" stroke-miterlimit="10"/>
<path d="M237.274 71.9282V99.803" stroke="white" stroke-width="0.267541" stroke-miterlimit="10"/>
<path opacity="0.3" d="M237.274 61.8882V71.9285" stroke="#3F2403" stroke-width="0.252397" stroke-miterlimit="10"/>
<path opacity="0.3" d="M227.693 92.7061V126.689" stroke="#3F2403" stroke-width="0.252397" stroke-miterlimit="10"/>
<path d="M227.693 65.3662V92.7059" stroke="white" stroke-width="0.267541" stroke-miterlimit="10"/>
<path opacity="0.3" d="M218.253 85.7144V127.612" stroke="#3F2403" stroke-width="0.252397" stroke-miterlimit="10"/>
<path d="M218.253 68.7935V85.7142" stroke="white" stroke-width="0.267541" stroke-miterlimit="10"/>
<path opacity="0.4" d="M107.087 123.181C104.639 123.181 102.281 123.579 100.076 124.301C99.0205 101.076 79.8585 82.5698 56.3704 82.5698C32.8823 82.5698 12.6148 102.156 12.6148 126.32C12.6148 150.485 32.2008 170.071 56.3654 170.071C68.6066 170.071 79.6667 165.043 87.6071 156.946C91.4991 163.66 98.7631 168.183 107.082 168.183C119.51 168.183 129.586 158.107 129.586 145.679C129.586 133.251 119.51 123.175 107.082 123.175L107.087 123.181Z" fill="white"/>
<path d="M111.459 136.971C109.273 136.971 107.244 137.643 105.563 138.789C104.71 126.764 94.6894 117.269 82.4481 117.269C78.8035 117.269 75.3608 118.112 72.2916 119.612C69.8686 98.5363 51.9686 82.1709 30.2422 82.1709C18.4502 82.1709 7.7839 86.9967 0.111023 94.7807V154.225C7.78895 162.004 18.4502 166.835 30.2422 166.835C43.0993 166.835 54.6137 161.106 62.3774 152.06C66.3855 158.985 73.8716 163.645 82.4481 163.645C91.0245 163.645 98.1926 159.182 102.261 152.504C104.043 155.755 107.496 157.956 111.464 157.956C117.254 157.956 121.953 153.261 121.953 147.466C121.953 141.671 117.259 136.976 111.464 136.976L111.459 136.971Z" fill="#FFE7A4"/>
<path d="M134.23 173.7C143.806 173.7 151.57 165.937 151.57 156.36C151.57 146.784 143.806 139.021 134.23 139.021C124.654 139.021 116.89 146.784 116.89 156.36C116.89 165.937 124.654 173.7 134.23 173.7Z" fill="#FFE7A4"/>
<path d="M0.111055 159.667V245.997H0V339.111H335.3V159.667H0.111055Z" fill="white"/>
<path d="M155.255 188.97C169.219 188.97 180.54 177.65 180.54 163.685C180.54 149.72 169.219 138.4 155.255 138.4C141.29 138.4 129.969 149.72 129.969 163.685C129.969 177.65 141.29 188.97 155.255 188.97Z" fill="white"/>
<path d="M182.917 178.082C190.868 178.082 197.314 171.636 197.314 163.685C197.314 155.734 190.868 149.289 182.917 149.289C174.966 149.289 168.521 155.734 168.521 163.685C168.521 171.636 174.966 178.082 182.917 178.082Z" fill="white"/>
<path d="M205.335 184.053C213.286 184.053 219.732 177.608 219.732 169.657C219.732 161.705 213.286 155.26 205.335 155.26C197.384 155.26 190.939 161.705 190.939 169.657C190.939 177.608 197.384 184.053 205.335 184.053Z" fill="white"/>
<path d="M121.03 150.717C118.612 150.717 116.35 151.368 114.402 152.504C110.787 144.397 102.67 138.748 93.2204 138.748C88.0462 138.748 83.2709 140.444 79.4143 143.306C73.1548 127.754 57.9251 116.774 40.1311 116.774C22.3371 116.774 5.8253 128.718 0.111023 145.331V172.872C5.8253 189.49 21.5799 201.434 40.1362 201.434C56.33 201.434 70.3986 192.337 77.5162 178.975C81.6454 182.781 87.1628 185.108 93.2204 185.108C101.489 185.108 108.738 180.777 112.842 174.265C115.093 176.047 117.935 177.113 121.03 177.113C128.319 177.113 134.23 171.201 134.23 163.912C134.23 156.623 128.319 150.712 121.03 150.712V150.717Z" fill="white"/>
<path d="M175.315 75.7697C173.402 69.7778 166.87 65.3659 159.101 65.3659C157.143 65.3659 155.265 65.6485 153.518 66.1634C149.167 61.2619 142.816 58.1675 135.739 58.1675C128.662 58.1675 122.281 61.272 117.925 66.1988C115.891 65.4668 113.654 65.0579 111.297 65.0579C103.629 65.0579 97.1628 69.3588 95.1588 75.2295L175.31 75.7646L175.315 75.7697Z" fill="white"/>
<path d="M335.32 54.1347C334.462 53.8873 333.538 53.751 332.574 53.751C331.61 53.751 330.656 53.8924 329.782 54.1498C327.607 51.6965 324.431 50.1519 320.893 50.1519C317.354 50.1519 314.164 51.7066 311.988 54.165C310.974 53.8015 309.853 53.5946 308.677 53.5946C304.84 53.5946 301.61 55.745 300.605 58.6829L335.32 58.9151V54.1347Z" fill="white"/>
<path d="M267.016 25.0024C264.31 14.8712 255.058 7.40527 244.058 7.40527C235.164 7.40527 227.415 12.2866 223.346 19.5153C220.62 16.9863 216.678 15.3911 212.281 15.3911C205.472 15.3911 199.732 19.2074 197.955 24.4219L221.221 24.5885C221.221 24.5885 221.216 24.6087 221.211 24.6188L267.016 25.0075V25.0024Z" fill="white"/>
<path d="M88.0614 28.3291C90.0755 20.7925 96.9559 15.2397 105.134 15.2397C111.746 15.2397 117.511 18.8692 120.54 24.2453C122.569 22.3624 125.502 21.1761 128.768 21.1761C133.831 21.1761 138.102 24.0131 139.424 27.8949L122.12 28.0161C122.12 28.0161 122.12 28.0312 122.125 28.0363L88.0563 28.324L88.0614 28.3291Z" fill="white"/>
<path opacity="0.3" d="M0.111023 -0.0195312V102.444C58.8691 95.1898 107.274 54.4932 125.684 -0.0195312H0.111023Z" fill="#FFEFC2"/>
<path opacity="0.7" d="M0.111023 -0.0195312V55.0384C2.93282 55.417 5.81015 55.6139 8.73291 55.6139C41.3527 55.6088 68.3138 31.4039 72.645 -0.0195312H0.111023Z" fill="#FBD867"/>
<path d="M31.8677 -0.0203427H0.111023V20.6157C3.478 23.1245 7.64761 24.6136 12.1706 24.6136C23.3215 24.6136 32.3624 15.5728 32.3624 4.42185C32.3624 2.89232 32.1907 1.40318 31.8727 -0.0253906L31.8677 -0.0203427Z" fill="white"/>
</g>
<defs>
<linearGradient id="paint0_linear_1377_3647" x1="167.763" y1="183.226" x2="165.663" y2="-72.9422" gradientUnits="userSpaceOnUse">
<stop offset="0.17" stop-color="#F4E8D4"/>
<stop offset="0.22" stop-color="#F4E3C8"/>
<stop offset="0.32" stop-color="#F4D8A9"/>
<stop offset="0.44" stop-color="#F6C578"/>
<stop offset="0.54" stop-color="#F7B54C"/>
<stop offset="0.79" stop-color="#E7645C"/>
</linearGradient>
<clipPath id="clip0_1377_3647">
<rect y="-0.0195312" width="335.673" height="339.131" rx="3.25504" fill="white"/>
</clipPath>
</defs>
</svg>
