<svg width="18" height="18" viewBox="0 0 18 18" fill="none" xmlns="http://www.w3.org/2000/svg">
<path d="M16.7922 10.1419H1.20779C0.675323 10.1419 0.233765 9.70034 0.233765 9.16787C0.233765 8.63541 0.675323 8.19385 1.20779 8.19385L16.7922 8.19385C17.3247 8.19385 17.7662 8.63541 17.7662 9.16787C17.7662 9.70034 17.3247 10.1419 16.7922 10.1419Z" fill="#605F5F"/>
<path d="M9.00015 17.9343C8.46768 17.9343 8.02612 17.4928 8.02612 16.9603L8.02612 1.37588C8.02612 0.843414 8.46768 0.401855 9.00015 0.401855C9.53262 0.401855 9.97417 0.843414 9.97417 1.37588V16.9603C9.97417 17.4928 9.53262 17.9343 9.00015 17.9343Z" fill="#605F5F"/>
</svg>
