<svg width="23" height="26" viewBox="0 0 23 26" fill="none" xmlns="http://www.w3.org/2000/svg">
<path d="M11.0726 25.47C9.78181 25.47 8.50283 25.091 7.49623 24.345L2.404 20.5436C1.05397 19.537 0 17.429 0 15.7592V6.94852C0 5.12479 1.33819 3.18264 3.05533 2.54315L8.96468 0.328626C10.1371 -0.109542 11.9845 -0.109542 13.1569 0.328626L19.0662 2.54315C20.7834 3.18264 22.1216 5.12479 22.1216 6.94852V15.7474C22.1216 17.429 21.0676 19.5251 19.7176 20.5317L14.6253 24.3331C13.6424 25.091 12.3634 25.47 11.0726 25.47Z" fill="#FFD300"/>
<path d="M9.48471 15.3695C9.25971 15.3695 9.0347 15.2866 8.85707 15.109L6.95044 13.2024C6.60701 12.8589 6.60701 12.2905 6.95044 11.9471C7.29387 11.6036 7.86231 11.6036 8.20573 11.9471L9.48471 13.2261L13.9493 8.76148C14.2927 8.41805 14.8612 8.41805 15.2046 8.76148C15.548 9.10491 15.548 9.67334 15.2046 10.0168L10.1124 15.109C9.93472 15.2866 9.70972 15.3695 9.48471 15.3695Z" fill="white"/>
</svg>
