<svg width="66" height="66" viewBox="0 0 66 66" fill="none" xmlns="http://www.w3.org/2000/svg">
<path d="M33.2849 31.8072C33.2028 31.8072 33.1481 31.8072 33.0659 31.8072C32.9291 31.7798 32.7375 31.7798 32.5732 31.8072C24.6349 31.5608 18.6401 25.3197 18.6401 17.6277C18.6401 9.79891 25.0182 3.4209 32.847 3.4209C40.6758 3.4209 47.0538 9.79891 47.0538 17.6277C47.0264 25.3197 41.0042 31.5608 33.3671 31.8072C33.3397 31.8072 33.3123 31.8072 33.2849 31.8072ZM32.847 7.52692C27.2901 7.52692 22.7462 12.0709 22.7462 17.6277C22.7462 23.1024 27.0164 27.5095 32.4637 27.7012C32.6006 27.6738 32.9838 27.6738 33.3397 27.7012C38.7049 27.4548 42.9204 23.0477 42.9478 17.6277C42.9478 12.0709 38.4038 7.52692 32.847 7.52692Z" fill="white"/>
<path d="M33.3124 61.7263C27.9472 61.7263 22.5546 60.3577 18.476 57.6203C14.6711 55.1019 12.5907 51.6529 12.5907 47.9027C12.5907 44.1526 14.6711 40.6761 18.476 38.1304C26.688 32.6831 39.9915 32.6831 48.1488 38.1304C51.9264 40.6488 54.0341 44.0978 54.0341 47.848C54.0341 51.5981 51.9537 55.0746 48.1488 57.6203C44.0428 60.3577 38.6776 61.7263 33.3124 61.7263ZM20.748 41.5795C18.1201 43.3314 16.6967 45.576 16.6967 47.9301C16.6967 50.2568 18.1475 52.5015 20.748 54.226C27.564 58.7974 39.0608 58.7974 45.8768 54.226C48.5047 52.4741 49.9281 50.2295 49.9281 47.8754C49.9281 45.5486 48.4773 43.304 45.8768 41.5795C39.0608 37.0355 27.564 37.0355 20.748 41.5795Z" fill="white"/>
</svg>
