<svg width="20" height="20" viewBox="0 0 20 20" fill="none" xmlns="http://www.w3.org/2000/svg">
<path d="M17.5001 9.79178H2.50008C1.70008 9.79178 1.04175 9.13345 1.04175 8.33345V5.56677C1.04175 5.00011 1.43339 4.42511 1.95839 4.21678L9.45839 1.2168C9.77506 1.0918 10.2251 1.0918 10.5418 1.2168L18.0418 4.21678C18.5668 4.42511 18.9584 5.00844 18.9584 5.56677V8.33345C18.9584 9.13345 18.3001 9.79178 17.5001 9.79178ZM10.0001 2.3668C9.96675 2.3668 9.93343 2.36676 9.91677 2.37509L2.42506 5.37512C2.37506 5.40012 2.29175 5.50844 2.29175 5.56677V8.33345C2.29175 8.45011 2.38341 8.54178 2.50008 8.54178H17.5001C17.6167 8.54178 17.7084 8.45011 17.7084 8.33345V5.56677C17.7084 5.50844 17.6334 5.40012 17.5751 5.37512L10.0751 2.37509C10.0584 2.36676 10.0334 2.3668 10.0001 2.3668Z" fill="#292D32"/>
<path d="M18.3334 18.9583H1.66675C1.32508 18.9583 1.04175 18.675 1.04175 18.3333V15.8333C1.04175 15.0333 1.70008 14.375 2.50008 14.375H17.5001C18.3001 14.375 18.9584 15.0333 18.9584 15.8333V18.3333C18.9584 18.675 18.6751 18.9583 18.3334 18.9583ZM2.29175 17.7083H17.7084V15.8333C17.7084 15.7167 17.6167 15.625 17.5001 15.625H2.50008C2.38341 15.625 2.29175 15.7167 2.29175 15.8333V17.7083Z" fill="#292D32"/>
<path d="M3.33325 15.6253C2.99159 15.6253 2.70825 15.342 2.70825 15.0003V9.16699C2.70825 8.82533 2.99159 8.54199 3.33325 8.54199C3.67492 8.54199 3.95825 8.82533 3.95825 9.16699V15.0003C3.95825 15.342 3.67492 15.6253 3.33325 15.6253Z" fill="#292D32"/>
<path d="M6.66675 15.6253C6.32508 15.6253 6.04175 15.342 6.04175 15.0003V9.16699C6.04175 8.82533 6.32508 8.54199 6.66675 8.54199C7.00841 8.54199 7.29175 8.82533 7.29175 9.16699V15.0003C7.29175 15.342 7.00841 15.6253 6.66675 15.6253Z" fill="#292D32"/>
<path d="M10 15.6253C9.65833 15.6253 9.375 15.342 9.375 15.0003V9.16699C9.375 8.82533 9.65833 8.54199 10 8.54199C10.3417 8.54199 10.625 8.82533 10.625 9.16699V15.0003C10.625 15.342 10.3417 15.6253 10 15.6253Z" fill="#292D32"/>
<path d="M13.3333 15.6253C12.9916 15.6253 12.7083 15.342 12.7083 15.0003V9.16699C12.7083 8.82533 12.9916 8.54199 13.3333 8.54199C13.6749 8.54199 13.9583 8.82533 13.9583 9.16699V15.0003C13.9583 15.342 13.6749 15.6253 13.3333 15.6253Z" fill="#292D32"/>
<path d="M16.6667 15.6253C16.3251 15.6253 16.0417 15.342 16.0417 15.0003V9.16699C16.0417 8.82533 16.3251 8.54199 16.6667 8.54199C17.0084 8.54199 17.2917 8.82533 17.2917 9.16699V15.0003C17.2917 15.342 17.0084 15.6253 16.6667 15.6253Z" fill="#292D32"/>
<path d="M19.1666 18.958H0.833252C0.491585 18.958 0.208252 18.6747 0.208252 18.333C0.208252 17.9913 0.491585 17.708 0.833252 17.708H19.1666C19.5083 17.708 19.7916 17.9913 19.7916 18.333C19.7916 18.6747 19.5083 18.958 19.1666 18.958Z" fill="#292D32"/>
<path d="M10 7.70801C8.96667 7.70801 8.125 6.86634 8.125 5.83301C8.125 4.79967 8.96667 3.95801 10 3.95801C11.0333 3.95801 11.875 4.79967 11.875 5.83301C11.875 6.86634 11.0333 7.70801 10 7.70801ZM10 5.20801C9.65833 5.20801 9.375 5.49134 9.375 5.83301C9.375 6.17467 9.65833 6.45801 10 6.45801C10.3417 6.45801 10.625 6.17467 10.625 5.83301C10.625 5.49134 10.3417 5.20801 10 5.20801Z" fill="#292D32"/>
</svg>
