<svg width="54" height="8" viewBox="0 0 54 8" fill="none" xmlns="http://www.w3.org/2000/svg">
<path d="M53.4952 4.0352C53.6904 3.83994 53.6904 3.52335 53.4952 3.32809L50.3132 0.146111C50.1179 -0.0491511 49.8013 -0.0491511 49.6061 0.146111C49.4108 0.341373 49.4108 0.657956 49.6061 0.853218L52.4345 3.68165L49.6061 6.51007C49.4108 6.70533 49.4108 7.02192 49.6061 7.21718C49.8013 7.41244 50.1179 7.41244 50.3132 7.21718L53.4952 4.0352ZM0 3.68164L-4.37114e-08 4.18164L1.02195 4.18164L1.02195 3.68164L1.02195 3.18164L4.37114e-08 3.18164L0 3.68164ZM3.06586 3.68164L3.06586 4.18164L5.10977 4.18164L5.10977 3.68164L5.10977 3.18164L3.06586 3.18164L3.06586 3.68164ZM7.15368 3.68164L7.15368 4.18164L9.19759 4.18164L9.19759 3.68164L9.19759 3.18164L7.15368 3.18164L7.15368 3.68164ZM11.2415 3.68164L11.2415 4.18164L13.2854 4.18164L13.2854 3.68164L13.2854 3.18164L11.2415 3.18164L11.2415 3.68164ZM15.3293 3.68164L15.3293 4.18164L17.3732 4.18164L17.3732 3.68164L17.3732 3.18164L15.3293 3.18164L15.3293 3.68164ZM19.4171 3.68164L19.4171 4.18164L21.461 4.18164L21.461 3.68164L21.461 3.18164L19.4171 3.18164L19.4171 3.68164ZM23.5049 3.68164L23.5049 4.18164L25.5488 4.18164L25.5488 3.68164L25.5488 3.18164L23.5049 3.18164L23.5049 3.68164ZM27.5928 3.68164L27.5928 4.18164L29.6367 4.18164L29.6367 3.68164L29.6367 3.18164L27.5928 3.18164L27.5928 3.68164ZM31.6806 3.68164L31.6806 4.18164L33.7245 4.18164L33.7245 3.68164L33.7245 3.18164L31.6806 3.18164L31.6806 3.68164ZM35.7684 3.68164L35.7684 4.18164L37.8123 4.18164L37.8123 3.68164L37.8123 3.18164L35.7684 3.18164L35.7684 3.68164ZM39.8562 3.68164L39.8562 4.18164L41.9001 4.18164L41.9001 3.68164L41.9001 3.18164L39.8562 3.18164L39.8562 3.68164ZM43.944 3.68164L43.944 4.18164L45.9879 4.18164L45.9879 3.68164L45.9879 3.18164L43.944 3.18164L43.944 3.68164ZM48.0318 3.68164L48.0318 4.18164L50.0757 4.18165L50.0757 3.68165L50.0757 3.18165L48.0318 3.18164L48.0318 3.68164ZM52.1196 3.68165L52.1196 4.18165L53.1416 4.18165L53.1416 3.68165L53.1416 3.18165L52.1196 3.18165L52.1196 3.68165Z" fill="white"/>
</svg>
