<svg width="540" height="223" viewBox="0 0 540 223" fill="none" xmlns="http://www.w3.org/2000/svg">
<g clip-path="url(#clip0_1622_5060)">
<path d="M540.666 233.77V0.261643C539.967 0.2346 539.232 0.225586 538.457 0.225586C522.696 0.225586 522.696 11.0428 506.93 11.0428C491.163 11.0428 491.168 0.225586 475.406 0.225586C459.645 0.225586 459.645 11.0428 443.879 11.0428C428.112 11.0428 428.117 0.225586 412.355 0.225586C396.594 0.225586 396.589 11.0428 380.828 11.0428C365.066 11.0428 365.066 0.225586 349.304 0.225586C333.543 0.225586 333.543 11.0428 317.781 11.0428C302.019 11.0428 302.019 0.225586 286.258 0.225586C270.496 0.225586 270.492 11.0428 254.73 11.0428C238.968 11.0428 238.964 0.225586 223.202 0.225586C207.441 0.225586 207.441 11.0428 191.675 11.0428C175.908 11.0428 175.913 0.225586 160.151 0.225586C144.39 0.225586 144.385 11.0428 128.624 11.0428C112.862 11.0428 112.857 0.225586 97.0958 0.225586C81.3342 0.225586 81.3342 11.0428 65.568 11.0428C49.8019 11.0428 49.8064 0.225586 34.0403 0.225586C18.2741 0.225586 18.2787 11.0428 2.51253 11.0428C1.60658 11.0428 0.741205 10.9887 -0.0881166 10.8851C-0.124174 10.8851 -0.160232 10.8806 -0.196289 10.8716V233.77H540.666Z" fill="black" stroke="black" stroke-width="0.450718" stroke-miterlimit="10"/>
</g>
<defs>
<clipPath id="clip0_1622_5060">
<rect width="541.313" height="233.995" fill="white" transform="translate(-0.421875)"/>
</clipPath>
</defs>
</svg>
