<svg width="12" height="12" viewBox="0 0 12 12" fill="none" xmlns="http://www.w3.org/2000/svg">
<path d="M4 2.875C3.795 2.875 3.625 2.705 3.625 2.5V1C3.625 0.795 3.795 0.625 4 0.625C4.205 0.625 4.375 0.795 4.375 1V2.5C4.375 2.705 4.205 2.875 4 2.875Z" fill="#292D32"/>
<path d="M8 2.875C7.795 2.875 7.625 2.705 7.625 2.5V1C7.625 0.795 7.795 0.625 8 0.625C8.205 0.625 8.375 0.795 8.375 1V2.5C8.375 2.705 8.205 2.875 8 2.875Z" fill="#292D32"/>
<path d="M4.25 7.25016C4.185 7.25016 4.12 7.23516 4.06 7.21016C3.995 7.18516 3.945 7.15015 3.895 7.10515C3.805 7.01015 3.75 6.88516 3.75 6.75016C3.75 6.68516 3.765 6.62015 3.79 6.56015C3.815 6.50015 3.85 6.44516 3.895 6.39516C3.945 6.35016 3.995 6.31515 4.06 6.29015C4.24 6.21515 4.465 6.25516 4.605 6.39516C4.695 6.49016 4.75 6.62016 4.75 6.75016C4.75 6.78016 4.745 6.81516 4.74 6.85016C4.735 6.88016 4.725 6.91016 4.71 6.94016C4.7 6.97016 4.685 7.00015 4.665 7.03015C4.65 7.05515 4.625 7.08015 4.605 7.10515C4.51 7.19515 4.38 7.25016 4.25 7.25016Z" fill="#292D32"/>
<path d="M6 7.25042C5.935 7.25042 5.87 7.23543 5.81 7.21043C5.745 7.18543 5.695 7.15042 5.645 7.10542C5.555 7.01042 5.5 6.88542 5.5 6.75042C5.5 6.68542 5.515 6.62042 5.54 6.56042C5.565 6.50042 5.6 6.44543 5.645 6.39543C5.695 6.35043 5.745 6.31542 5.81 6.29042C5.99 6.21042 6.215 6.25543 6.355 6.39543C6.445 6.49043 6.5 6.62042 6.5 6.75042C6.5 6.78042 6.495 6.81543 6.49 6.85043C6.485 6.88043 6.475 6.91043 6.46 6.94043C6.45 6.97043 6.435 7.00042 6.415 7.03042C6.4 7.05542 6.375 7.08042 6.355 7.10542C6.26 7.19542 6.13 7.25042 6 7.25042Z" fill="#292D32"/>
<path d="M7.75 7.25042C7.685 7.25042 7.62 7.23543 7.56 7.21043C7.495 7.18543 7.445 7.15042 7.395 7.10542C7.375 7.08042 7.355 7.05542 7.335 7.03042C7.315 7.00042 7.3 6.97043 7.29 6.94043C7.275 6.91043 7.265 6.88043 7.26 6.85043C7.255 6.81543 7.25 6.78042 7.25 6.75042C7.25 6.62042 7.305 6.49043 7.395 6.39543C7.445 6.35043 7.495 6.31542 7.56 6.29042C7.745 6.21042 7.965 6.25543 8.105 6.39543C8.195 6.49043 8.25 6.62042 8.25 6.75042C8.25 6.78042 8.245 6.81543 8.24 6.85043C8.235 6.88043 8.225 6.91043 8.21 6.94043C8.2 6.97043 8.185 7.00042 8.165 7.03042C8.15 7.05542 8.125 7.08042 8.105 7.10542C8.01 7.19542 7.88 7.25042 7.75 7.25042Z" fill="#292D32"/>
<path d="M4.25 8.9996C4.185 8.9996 4.12 8.98461 4.06 8.95961C4 8.93461 3.945 8.8996 3.895 8.8546C3.805 8.7596 3.75 8.6296 3.75 8.49961C3.75 8.43461 3.765 8.3696 3.79 8.3096C3.815 8.2446 3.85 8.18961 3.895 8.14461C4.08 7.95961 4.42 7.95961 4.605 8.14461C4.695 8.23961 4.75 8.36961 4.75 8.49961C4.75 8.6296 4.695 8.7596 4.605 8.8546C4.51 8.9446 4.38 8.9996 4.25 8.9996Z" fill="#292D32"/>
<path d="M6 8.9996C5.87 8.9996 5.74 8.9446 5.645 8.8546C5.555 8.7596 5.5 8.6296 5.5 8.49961C5.5 8.43461 5.515 8.3696 5.54 8.3096C5.565 8.2446 5.6 8.18961 5.645 8.14461C5.83 7.95961 6.17 7.95961 6.355 8.14461C6.4 8.18961 6.435 8.2446 6.46 8.3096C6.485 8.3696 6.5 8.43461 6.5 8.49961C6.5 8.6296 6.445 8.7596 6.355 8.8546C6.26 8.9446 6.13 8.9996 6 8.9996Z" fill="#292D32"/>
<path d="M7.75 9.00044C7.62 9.00044 7.49 8.94544 7.395 8.85544C7.35 8.81044 7.315 8.75545 7.29 8.69045C7.265 8.63045 7.25 8.56544 7.25 8.50044C7.25 8.43544 7.265 8.37044 7.29 8.31044C7.315 8.24544 7.35 8.19045 7.395 8.14545C7.51 8.03045 7.685 7.97544 7.845 8.01044C7.88 8.01544 7.91 8.02544 7.94 8.04044C7.97 8.05044 8 8.06545 8.03 8.08545C8.055 8.10045 8.08 8.12545 8.105 8.14545C8.195 8.24045 8.25 8.37044 8.25 8.50044C8.25 8.63044 8.195 8.76044 8.105 8.85544C8.01 8.94544 7.88 9.00044 7.75 9.00044Z" fill="#292D32"/>
<path d="M10.25 4.91992H1.75C1.545 4.91992 1.375 4.74992 1.375 4.54492C1.375 4.33992 1.545 4.16992 1.75 4.16992H10.25C10.455 4.16992 10.625 4.33992 10.625 4.54492C10.625 4.74992 10.455 4.91992 10.25 4.91992Z" fill="#292D32"/>
<path d="M8 11.375H4C2.175 11.375 1.125 10.325 1.125 8.5V4.25C1.125 2.425 2.175 1.375 4 1.375H8C9.825 1.375 10.875 2.425 10.875 4.25V8.5C10.875 10.325 9.825 11.375 8 11.375ZM4 2.125C2.57 2.125 1.875 2.82 1.875 4.25V8.5C1.875 9.93 2.57 10.625 4 10.625H8C9.43 10.625 10.125 9.93 10.125 8.5V4.25C10.125 2.82 9.43 2.125 8 2.125H4Z" fill="#292D32"/>
</svg>
