<svg width="10" height="10" viewBox="0 0 10 10" fill="none" xmlns="http://www.w3.org/2000/svg">
<path d="M4.6091 9.2182C2.06682 9.2182 0 7.15138 0 4.6091C0 2.06682 2.06682 0 4.6091 0C7.15138 0 9.2182 2.06682 9.2182 4.6091C9.2182 7.15138 7.15138 9.2182 4.6091 9.2182Z" fill="#FF3737"/>
<path d="M6.18852 6.74698C6.03846 6.74698 5.88839 6.69173 5.76992 6.57334L2.6423 3.44777C2.41326 3.21887 2.41326 2.84002 2.6423 2.61112C2.87135 2.38223 3.25045 2.38223 3.47949 2.61112L6.60712 5.7367C6.83616 5.96559 6.83616 6.34445 6.60712 6.57334C6.48864 6.68384 6.33858 6.74698 6.18852 6.74698Z" fill="#FFCDCD"/>
<path d="M3.02947 6.77823C2.8794 6.77823 2.72934 6.72298 2.61087 6.60459C2.38183 6.3757 2.38183 5.99684 2.61087 5.76795L5.73849 2.64237C5.96753 2.41348 6.34664 2.41348 6.57568 2.64237C6.80473 2.87127 6.80473 3.25012 6.57568 3.47902L3.44806 6.60459C3.32959 6.72298 3.17953 6.77823 3.02947 6.77823Z" fill="#FFCDCD"/>
</svg>
