<svg width="20" height="20" viewBox="0 0 20 20" fill="none" xmlns="http://www.w3.org/2000/svg">
<path d="M18.3334 7.7085H1.66669C1.32502 7.7085 1.04169 7.42516 1.04169 7.0835C1.04169 6.74183 1.32502 6.4585 1.66669 6.4585H18.3334C18.675 6.4585 18.9584 6.74183 18.9584 7.0835C18.9584 7.42516 18.675 7.7085 18.3334 7.7085Z" fill="#292D32"/>
<path d="M6.66667 14.375H5C4.65833 14.375 4.375 14.0917 4.375 13.75C4.375 13.4083 4.65833 13.125 5 13.125H6.66667C7.00833 13.125 7.29167 13.4083 7.29167 13.75C7.29167 14.0917 7.00833 14.375 6.66667 14.375Z" fill="#292D32"/>
<path d="M12.0833 14.375H8.75C8.40833 14.375 8.125 14.0917 8.125 13.75C8.125 13.4083 8.40833 13.125 8.75 13.125H12.0833C12.425 13.125 12.7083 13.4083 12.7083 13.75C12.7083 14.0917 12.425 14.375 12.0833 14.375Z" fill="#292D32"/>
<path d="M14.6334 17.7082H5.36669C2.05002 17.7082 1.04169 16.7082 1.04169 13.4248V6.57484C1.04169 3.2915 2.05002 2.2915 5.36669 2.2915H14.625C17.9417 2.2915 18.95 3.2915 18.95 6.57484V13.4165C18.9584 16.7082 17.95 17.7082 14.6334 17.7082ZM5.36669 3.5415C2.75002 3.5415 2.29169 3.9915 2.29169 6.57484V13.4165C2.29169 15.9998 2.75002 16.4498 5.36669 16.4498H14.625C17.2417 16.4498 17.7 15.9998 17.7 13.4165V6.57484C17.7 3.9915 17.2417 3.5415 14.625 3.5415H5.36669Z" fill="#292D32"/>
</svg>
