<svg width="22" height="22" viewBox="0 0 22 22" fill="none" xmlns="http://www.w3.org/2000/svg">
<path d="M11.0002 20.8535C10.3861 20.8535 9.76274 20.6977 9.21274 20.3768L3.76774 17.2327C2.66774 16.591 1.98022 15.4085 1.98022 14.1343V7.86437C1.98022 6.59021 2.66774 5.4077 3.76774 4.76604L9.21274 1.62188C10.3127 0.980208 11.6786 0.980208 12.7878 1.62188L18.2328 4.76604C19.3328 5.4077 20.0203 6.59021 20.0203 7.86437V14.1343C20.0203 15.4085 19.3328 16.591 18.2328 17.2327L12.7878 20.3768C12.2378 20.6977 11.6144 20.8535 11.0002 20.8535Z" fill="#FFD300"/>
<path d="M11 12.6035C10.6242 12.6035 10.3125 12.2918 10.3125 11.916V7.10352C10.3125 6.72768 10.6242 6.41602 11 6.41602C11.3758 6.41602 11.6875 6.72768 11.6875 7.10352V11.916C11.6875 12.2918 11.3758 12.6035 11 12.6035Z" fill="black"/>
<path d="M10.9999 15.8121C10.7524 15.8121 10.5232 15.7205 10.3491 15.5463C10.2666 15.4546 10.2024 15.3538 10.1474 15.2438C10.1016 15.1338 10.0833 15.0146 10.0833 14.8955C10.0833 14.6571 10.1841 14.4188 10.3491 14.2446C10.6882 13.9054 11.3116 13.9054 11.6508 14.2446C11.8158 14.4188 11.9166 14.6571 11.9166 14.8955C11.9166 15.0146 11.8891 15.1338 11.8432 15.2438C11.7974 15.3538 11.7333 15.4546 11.6508 15.5463C11.4766 15.7205 11.2474 15.8121 10.9999 15.8121Z" fill="black"/>
</svg>
