<svg width="20" height="20" viewBox="0 0 20 20" fill="none" xmlns="http://www.w3.org/2000/svg">
<path d="M9.25002 18.9582H5.75002C2.49169 18.9582 1.04169 17.5082 1.04169 14.2498V10.7498C1.04169 7.4915 2.49169 6.0415 5.75002 6.0415H9.25002C12.5084 6.0415 13.9584 7.4915 13.9584 10.7498V14.2498C13.9584 17.5082 12.5084 18.9582 9.25002 18.9582ZM5.75002 7.2915C3.16669 7.2915 2.29169 8.1665 2.29169 10.7498V14.2498C2.29169 16.8332 3.16669 17.7082 5.75002 17.7082H9.25002C11.8334 17.7082 12.7084 16.8332 12.7084 14.2498V10.7498C12.7084 8.1665 11.8334 7.2915 9.25002 7.2915H5.75002Z" fill="#292D32"/>
<path d="M14.25 13.9582H13.3334C12.9917 13.9582 12.7084 13.6748 12.7084 13.3332V10.7498C12.7084 8.1665 11.8334 7.2915 9.25002 7.2915H6.66669C6.32502 7.2915 6.04169 7.00817 6.04169 6.6665V5.74984C6.04169 2.4915 7.49169 1.0415 10.75 1.0415H14.25C17.5084 1.0415 18.9584 2.4915 18.9584 5.74984V9.24984C18.9584 12.5082 17.5084 13.9582 14.25 13.9582ZM13.9584 12.7082H14.25C16.8334 12.7082 17.7084 11.8332 17.7084 9.24984V5.74984C17.7084 3.1665 16.8334 2.2915 14.25 2.2915H10.75C8.16669 2.2915 7.29169 3.1665 7.29169 5.74984V6.0415H9.25002C12.5084 6.0415 13.9584 7.4915 13.9584 10.7498V12.7082Z" fill="#292D32"/>
</svg>
