<svg width="20" height="20" viewBox="0 0 20 20" fill="none" xmlns="http://www.w3.org/2000/svg">
<path d="M9.49984 18.959H6.33317C2.67484 18.959 1.0415 17.3257 1.0415 13.6673V10.5007C1.0415 6.84232 2.67484 5.20898 6.33317 5.20898H8.83317C9.17484 5.20898 9.45817 5.49232 9.45817 5.83398C9.45817 6.17565 9.17484 6.45898 8.83317 6.45898H6.33317C3.34984 6.45898 2.2915 7.51732 2.2915 10.5007V13.6673C2.2915 16.6507 3.34984 17.709 6.33317 17.709H9.49984C12.4832 17.709 13.5415 16.6507 13.5415 13.6673V11.1673C13.5415 10.8257 13.8248 10.5423 14.1665 10.5423C14.5082 10.5423 14.7915 10.8257 14.7915 11.1673V13.6673C14.7915 17.3257 13.1582 18.959 9.49984 18.959Z" fill="white"/>
<path d="M14.1667 11.7921H11.5C9.15837 11.7921 8.20837 10.8421 8.20837 8.5004V5.83373C8.20837 5.58373 8.35837 5.3504 8.59171 5.25873C8.82504 5.15873 9.09171 5.21706 9.27504 5.39206L14.6084 10.7254C14.7834 10.9004 14.8417 11.1754 14.7417 11.4087C14.65 11.6421 14.4167 11.7921 14.1667 11.7921ZM9.45837 7.34206V8.5004C9.45837 10.1587 9.84171 10.5421 11.5 10.5421H12.6584L9.45837 7.34206Z" fill="white"/>
<path d="M13.0001 2.29102H9.66675C9.32508 2.29102 9.04175 2.00768 9.04175 1.66602C9.04175 1.32435 9.32508 1.04102 9.66675 1.04102H13.0001C13.3417 1.04102 13.6251 1.32435 13.6251 1.66602C13.6251 2.00768 13.3417 2.29102 13.0001 2.29102Z" fill="white"/>
<path d="M5.8335 4.79102C5.49183 4.79102 5.2085 4.50768 5.2085 4.16602C5.2085 2.44102 6.6085 1.04102 8.3335 1.04102H10.5168C10.8585 1.04102 11.1418 1.32435 11.1418 1.66602C11.1418 2.00768 10.8585 2.29102 10.5168 2.29102H8.3335C7.30016 2.29102 6.4585 3.13268 6.4585 4.16602C6.4585 4.50768 6.17516 4.79102 5.8335 4.79102Z" fill="white"/>
<path d="M15.9917 14.791C15.65 14.791 15.3667 14.5077 15.3667 14.166C15.3667 13.8243 15.65 13.541 15.9917 13.541C16.9417 13.541 17.7084 12.766 17.7084 11.8243V6.66602C17.7084 6.32435 17.9917 6.04102 18.3334 6.04102C18.675 6.04102 18.9584 6.32435 18.9584 6.66602V11.8243C18.9584 13.4577 17.625 14.791 15.9917 14.791Z" fill="white"/>
<path d="M18.3335 7.29174H15.8335C13.6168 7.29174 12.7085 6.38341 12.7085 4.16674V1.66674C12.7085 1.41674 12.8585 1.18341 13.0918 1.09174C13.3252 0.991739 13.5918 1.05007 13.7752 1.22507L18.7752 6.22507C18.9502 6.40007 19.0085 6.67507 18.9085 6.9084C18.8168 7.14174 18.5835 7.29174 18.3335 7.29174ZM13.9585 3.17507V4.16674C13.9585 5.69174 14.3085 6.04174 15.8335 6.04174H16.8252L13.9585 3.17507Z" fill="white"/>
</svg>
