<svg width="20" height="20" viewBox="0 0 20 20" fill="none" xmlns="http://www.w3.org/2000/svg">
<path d="M12.7167 18.5412H7.28332C3.19165 18.5412 1.44165 16.7912 1.44165 12.6996V12.5912C1.44165 8.89124 2.89998 7.10791 6.16665 6.79957C6.49998 6.77457 6.81665 7.02457 6.84998 7.36624C6.88332 7.70791 6.63332 8.01624 6.28332 8.04957C3.66665 8.29124 2.69165 9.52457 2.69165 12.5996V12.7079C2.69165 16.0996 3.89165 17.2996 7.28332 17.2996H12.7167C16.1083 17.2996 17.3083 16.0996 17.3083 12.7079V12.5996C17.3083 9.50791 16.3167 8.27457 13.65 8.04957C13.3083 8.01624 13.05 7.71624 13.0833 7.37457C13.1167 7.03291 13.4083 6.77457 13.7583 6.80791C17.075 7.09124 18.5583 8.88291 18.5583 12.6079V12.7162C18.5583 16.7912 16.8083 18.5412 12.7167 18.5412Z" fill="white"/>
<path d="M10 13.0253C9.65833 13.0253 9.375 12.742 9.375 12.4003V1.66699C9.375 1.32533 9.65833 1.04199 10 1.04199C10.3417 1.04199 10.625 1.32533 10.625 1.66699V12.4003C10.625 12.7503 10.3417 13.0253 10 13.0253Z" fill="white"/>
<path d="M10 13.9585C9.8417 13.9585 9.68337 13.9002 9.55837 13.7752L6.7667 10.9835C6.52503 10.7419 6.52503 10.3419 6.7667 10.1002C7.00837 9.85853 7.40837 9.85853 7.65003 10.1002L10 12.4502L12.35 10.1002C12.5917 9.85853 12.9917 9.85853 13.2334 10.1002C13.475 10.3419 13.475 10.7419 13.2334 10.9835L10.4417 13.7752C10.3167 13.9002 10.1584 13.9585 10 13.9585Z" fill="white"/>
</svg>
