<svg width="15" height="16" viewBox="0 0 15 16" fill="none" xmlns="http://www.w3.org/2000/svg">
<path d="M1.90669 15.0782C1.39836 15.0782 0.923361 14.9032 0.581694 14.5782C0.148361 14.1698 -0.0599722 13.5532 0.0150278 12.8865L0.323361 10.1865C0.381695 9.67815 0.690028 9.00315 1.04836 8.63648L7.89003 1.39482C9.59836 -0.413517 11.3817 -0.463517 13.19 1.24482C14.9984 2.95315 15.0484 4.73648 13.34 6.54482L6.49836 13.7865C6.14836 14.1615 5.49836 14.5115 4.99003 14.5948L2.30669 15.0532C2.16503 15.0615 2.04003 15.0782 1.90669 15.0782ZM10.565 1.23648C9.92336 1.23648 9.36503 1.63648 8.79836 2.23648L1.95669 9.48648C1.79003 9.66148 1.59836 10.0782 1.56503 10.3198L1.25669 13.0198C1.22336 13.2948 1.29003 13.5198 1.44003 13.6615C1.59003 13.8032 1.81503 13.8532 2.09003 13.8115L4.77336 13.3532C5.01503 13.3115 5.41503 13.0948 5.58169 12.9198L12.4234 5.67815C13.4567 4.57815 13.8317 3.56148 12.3234 2.14482C11.6567 1.50315 11.0817 1.23648 10.565 1.23648Z" fill="currentColor"/>
<path d="M11.7402 7.93656C11.7236 7.93656 11.6986 7.93656 11.6819 7.93656C9.08191 7.67823 6.99024 5.70323 6.59024 3.11989C6.54024 2.77823 6.77357 2.46156 7.11524 2.40323C7.45691 2.35323 7.77357 2.58656 7.83191 2.92823C8.14857 4.94489 9.78191 6.49489 11.8152 6.69489C12.1569 6.72823 12.4069 7.03656 12.3736 7.37823C12.3319 7.69489 12.0569 7.93656 11.7402 7.93656Z" fill="currentColor"/>
</svg>
