<svg width="20" height="21" viewBox="0 0 20 21" fill="none" xmlns="http://www.w3.org/2000/svg">
<path d="M14.1667 18.2083H5.83332C2.79166 18.2083 1.04166 16.4583 1.04166 13.4167V7.58333C1.04166 4.54166 2.79166 2.79166 5.83332 2.79166H14.1667C17.2083 2.79166 18.9583 4.54166 18.9583 7.58333V13.4167C18.9583 16.4583 17.2083 18.2083 14.1667 18.2083ZM5.83332 4.04166C3.44999 4.04166 2.29166 5.2 2.29166 7.58333V13.4167C2.29166 15.8 3.44999 16.9583 5.83332 16.9583H14.1667C16.55 16.9583 17.7083 15.8 17.7083 13.4167V7.58333C17.7083 5.2 16.55 4.04166 14.1667 4.04166H5.83332Z" fill="white"/>
<path d="M9.99979 11.225C9.29979 11.225 8.59146 11.0083 8.0498 10.5666L5.44146 8.48331C5.17479 8.26664 5.1248 7.87497 5.34146 7.60831C5.55813 7.34164 5.9498 7.29164 6.21647 7.50831L8.82479 9.59164C9.45812 10.1 10.5331 10.1 11.1665 9.59164L13.7748 7.50831C14.0415 7.29164 14.4415 7.33331 14.6498 7.60831C14.8665 7.87497 14.8248 8.27498 14.5498 8.48331L11.9415 10.5666C11.4081 11.0083 10.6998 11.225 9.99979 11.225Z" fill="white"/>
</svg>
