<svg width="10" height="10" viewBox="0 0 10 10" fill="none" xmlns="http://www.w3.org/2000/svg">
<path d="M8.90596 1.40647L1.4062 8.90624C1.14996 9.16248 0.724976 9.16248 0.468735 8.90624C0.212493 8.64999 0.212493 8.22501 0.468735 7.96876L7.96849 0.468999C8.22473 0.212757 8.64971 0.212757 8.90596 0.468999C9.1622 0.725241 9.1622 1.15023 8.90596 1.40647Z" fill="white"/>
<path d="M8.90596 8.906C8.64971 9.16224 8.22473 9.16224 7.96849 8.906L0.468735 1.40624C0.212493 1.14999 0.212493 0.725007 0.468735 0.468765C0.724976 0.212523 1.14996 0.212523 1.4062 0.468765L8.90596 7.96853C9.1622 8.22477 9.1622 8.64976 8.90596 8.906Z" fill="white"/>
</svg>
