<svg width="18" height="17" viewBox="0 0 18 17" fill="none" xmlns="http://www.w3.org/2000/svg">
<path d="M7.75559 2.3437C8.09426 2.29362 8.44364 2.26676 8.80348 2.26676C13.0576 2.26676 15.8492 6.0208 16.787 7.50578C16.9006 7.68552 16.9573 7.77538 16.9891 7.91399C17.0129 8.01809 17.0129 8.18232 16.989 8.28641C16.9573 8.42501 16.9001 8.51548 16.7858 8.6964C16.5359 9.09189 16.1549 9.64768 15.6502 10.2505M4.40673 3.69596C2.60501 4.91818 1.38184 6.61625 0.820719 7.5045C0.706702 7.68499 0.649694 7.77523 0.617914 7.91383C0.594045 8.01793 0.594036 8.18213 0.617892 8.28623C0.649656 8.42483 0.706407 8.51469 0.81991 8.69441C1.75775 10.1794 4.54931 13.9334 8.80348 13.9334C10.5188 13.9334 11.9964 13.3231 13.2105 12.4973M1.30348 0.600098L16.3035 15.6001M7.03571 6.33233C6.5833 6.78474 6.30348 7.40974 6.30348 8.1001C6.30348 9.48081 7.42277 10.6001 8.80348 10.6001C9.49383 10.6001 10.1188 10.3203 10.5712 9.86786" stroke="white" stroke-width="1.2" stroke-linecap="round" stroke-linejoin="round"/>
</svg>
