<svg width="34" height="34" viewBox="0 0 34 34" fill="none" xmlns="http://www.w3.org/2000/svg">
<path d="M17.0001 22.1425C15.1301 22.1425 13.6001 20.6124 13.6001 18.7424V15.2433C13.6001 13.3733 15.1301 11.8433 17.0001 11.8433C18.8701 11.8433 20.4001 13.3733 20.4001 15.2433V18.7424C20.4001 20.6266 18.8701 22.1425 17.0001 22.1425ZM17.0001 13.9824C16.3059 13.9824 15.7251 14.5491 15.7251 15.2575V18.7566C15.7251 19.4649 16.2918 20.0316 17.0001 20.0316C17.7084 20.0316 18.2751 19.4649 18.2751 18.7566V15.2575C18.2751 14.5491 17.6943 13.9824 17.0001 13.9824Z" fill="white"/>
<path d="M16.9998 26.6617C12.509 26.6617 8.854 23.0067 8.854 18.5159V15.4842C8.854 10.9934 12.509 7.33838 16.9998 7.33838C21.1932 7.33838 24.6782 10.4834 25.1032 14.6484C25.1598 15.2293 24.7348 15.7534 24.154 15.81C23.5732 15.8809 23.049 15.4417 22.9923 14.8609C22.6807 11.7867 20.1023 9.46338 16.9998 9.46338C13.6848 9.46338 10.979 12.1692 10.979 15.4842V18.5159C10.979 21.8309 13.6848 24.5367 16.9998 24.5367C20.1165 24.5367 22.7515 22.1 23.0065 18.9975C23.049 18.4167 23.559 17.9775 24.154 18.02C24.7348 18.0625 25.174 18.5726 25.1315 19.1676C24.7915 23.3751 21.2215 26.6617 16.9998 26.6617Z" fill="white"/>
<path d="M31.1667 13.8125C30.5858 13.8125 30.1042 13.3309 30.1042 12.75V9.91671C30.1042 6.26171 27.7383 3.89587 24.0833 3.89587H21.25C20.6692 3.89587 20.1875 3.41421 20.1875 2.83337C20.1875 2.25254 20.6692 1.77087 21.25 1.77087H24.0833C28.9567 1.77087 32.2292 5.04337 32.2292 9.91671V12.75C32.2292 13.3309 31.7475 13.8125 31.1667 13.8125Z" fill="white"/>
<path d="M2.8335 13.8125C2.25266 13.8125 1.771 13.3309 1.771 12.75V9.91671C1.771 5.04337 5.0435 1.77087 9.91683 1.77087H12.7502C13.331 1.77087 13.8127 2.25254 13.8127 2.83337C13.8127 3.41421 13.331 3.89587 12.7502 3.89587H9.91683C6.26183 3.89587 3.896 6.26171 3.896 9.91671V12.75C3.896 13.3309 3.41433 13.8125 2.8335 13.8125Z" fill="white"/>
<path d="M24.0833 32.2292H21.25C20.6692 32.2292 20.1875 31.7475 20.1875 31.1667C20.1875 30.5858 20.6692 30.1042 21.25 30.1042H24.0833C27.7383 30.1042 30.1042 27.7383 30.1042 24.0833V21.25C30.1042 20.6692 30.5858 20.1875 31.1667 20.1875C31.7475 20.1875 32.2292 20.6692 32.2292 21.25V24.0833C32.2292 28.9567 28.9567 32.2292 24.0833 32.2292Z" fill="white"/>
<path d="M12.7502 32.2292H9.91683C5.0435 32.2292 1.771 28.9567 1.771 24.0833V21.25C1.771 20.6692 2.25266 20.1875 2.8335 20.1875C3.41433 20.1875 3.896 20.6692 3.896 21.25V24.0833C3.896 27.7383 6.26183 30.1042 9.91683 30.1042H12.7502C13.331 30.1042 13.8127 30.5858 13.8127 31.1667C13.8127 31.7475 13.331 32.2292 12.7502 32.2292Z" fill="white"/>
</svg>
