<svg width="69" height="68" viewBox="0 0 69 68" fill="none" xmlns="http://www.w3.org/2000/svg">
<g clip-path="url(#clip0_1622_5130)">
<path d="M29.1282 55.5931C28.536 55.3061 28.4984 54.7921 28.5447 54.226C28.7612 51.5837 28.9684 48.9403 29.1791 46.2969C29.5198 42.0298 29.8757 37.7632 30.1812 33.4938C30.2145 33.0266 30.073 32.4772 29.8345 32.0705C26.3723 26.1753 22.8785 20.2996 19.3955 14.4167C19.0633 13.8559 18.6131 13.2908 19.1379 12.6173C19.6348 11.9788 20.2848 12.1322 20.9397 12.3135C34.9613 16.1849 48.9833 20.0538 63.0067 23.9161C63.5265 24.0589 63.9968 24.2312 64.1297 24.8155C64.2616 25.3982 63.9121 25.7695 63.5145 26.1227C53.7055 34.8224 43.899 43.5242 34.0921 52.2269C32.9281 53.2601 31.763 54.2919 30.6014 55.3291C30.1604 55.723 29.681 55.8555 29.1282 55.5931Z" fill="white" stroke="white" stroke-width="5.67914" stroke-miterlimit="10"/>
<path d="M29.1282 55.5931C28.536 55.3061 28.4984 54.7921 28.5447 54.226C28.7612 51.5837 28.9684 48.9403 29.1791 46.2969C29.5198 42.0298 29.8757 37.7632 30.1812 33.4938C30.2145 33.0266 30.073 32.4772 29.8345 32.0705C26.3723 26.1753 22.8785 20.2996 19.3955 14.4167C19.0633 13.8559 18.6131 13.2908 19.1379 12.6173C19.6348 11.9788 20.2848 12.1322 20.9397 12.3135C34.9613 16.1849 48.9833 20.0538 63.0067 23.9161C63.5265 24.0589 63.9968 24.2312 64.1297 24.8155C64.2616 25.3982 63.9121 25.7695 63.5145 26.1227C53.7055 34.8224 43.899 43.5242 34.0921 52.2269C32.9281 53.2601 31.763 54.2919 30.6014 55.3291C30.1604 55.723 29.681 55.8555 29.1282 55.5931Z" fill="black"/>
</g>
<defs>
<clipPath id="clip0_1622_5130">
<rect width="49.3355" height="51.5845" fill="white" transform="translate(68.3277 23.3469) rotate(116.91)"/>
</clipPath>
</defs>
</svg>
