<svg width="34" height="34" viewBox="0 0 34 34" fill="none" xmlns="http://www.w3.org/2000/svg">
<path d="M12.75 15.2292C10.5966 15.2292 8.85413 13.4867 8.85413 11.3333C8.85413 9.18 10.5966 7.4375 12.75 7.4375C14.9033 7.4375 16.6458 9.18 16.6458 11.3333C16.6458 13.4867 14.9033 15.2292 12.75 15.2292ZM12.75 9.5625C11.7725 9.5625 10.9791 10.3558 10.9791 11.3333C10.9791 12.3108 11.7725 13.1042 12.75 13.1042C13.7275 13.1042 14.5208 12.3108 14.5208 11.3333C14.5208 10.3558 13.7275 9.5625 12.75 9.5625Z" fill="#6C6C6C"/>
<path d="M21.25 32.2288H12.75C5.05754 32.2288 1.77087 28.9422 1.77087 21.2497V12.7497C1.77087 5.05717 5.05754 1.77051 12.75 1.77051H18.4167C18.9975 1.77051 19.4792 2.25217 19.4792 2.83301C19.4792 3.41384 18.9975 3.89551 18.4167 3.89551H12.75C6.21921 3.89551 3.89587 6.21884 3.89587 12.7497V21.2497C3.89587 27.7805 6.21921 30.1038 12.75 30.1038H21.25C27.7809 30.1038 30.1042 27.7805 30.1042 21.2497V14.1663C30.1042 13.5855 30.5859 13.1038 31.1667 13.1038C31.7475 13.1038 32.2292 13.5855 32.2292 14.1663V21.2497C32.2292 28.9422 28.9425 32.2288 21.25 32.2288Z" fill="#6C6C6C"/>
<path d="M25.5 12.3959C24.9192 12.3959 24.4375 11.9142 24.4375 11.3334V2.83341C24.4375 2.40841 24.6925 2.01174 25.0892 1.85591C25.4858 1.70008 25.9392 1.78508 26.2508 2.08258L29.0842 4.91591C29.495 5.32674 29.495 6.00674 29.0842 6.41758C28.6733 6.82841 27.9933 6.82841 27.5825 6.41758L26.5625 5.39758V11.3334C26.5625 11.9142 26.0808 12.3959 25.5 12.3959Z" fill="#6C6C6C"/>
<path d="M22.6666 6.72921C22.3975 6.72921 22.1283 6.63004 21.9158 6.41754C21.505 6.00671 21.505 5.32671 21.9158 4.91587L24.7491 2.08254C25.16 1.67171 25.84 1.67171 26.2508 2.08254C26.6616 2.49337 26.6616 3.17337 26.2508 3.58421L23.4175 6.41754C23.205 6.63004 22.9358 6.72921 22.6666 6.72921Z" fill="#6C6C6C"/>
<path d="M3.78251 27.908C3.44251 27.908 3.10251 27.738 2.90417 27.4405C2.57834 26.9588 2.70584 26.293 3.18751 25.9671L10.1717 21.278C11.7017 20.258 13.8125 20.3713 15.2008 21.5471L15.6683 21.958C16.3767 22.5671 17.5808 22.5671 18.275 21.958L24.1683 16.9005C25.67 15.6113 28.0358 15.6113 29.5517 16.9005L31.8608 18.8838C32.3 19.2663 32.3567 19.9321 31.9742 20.3855C31.5917 20.8246 30.9117 20.8813 30.4725 20.4988L28.1633 18.5155C27.455 17.9063 26.265 17.9063 25.5567 18.5155L19.6633 23.573C18.1617 24.8621 15.7958 24.8621 14.28 23.573L13.8125 23.1621C13.1608 22.6096 12.0842 22.553 11.3617 23.0488L4.39167 27.738C4.19334 27.8513 3.98084 27.908 3.78251 27.908Z" fill="#6C6C6C"/>
</svg>
