<svg width="20" height="20" viewBox="0 0 20 20" fill="none" xmlns="http://www.w3.org/2000/svg">
<path d="M14.825 18.9501H5.17502C2.89169 18.9501 1.04169 17.0918 1.04169 14.8084V8.63343C1.04169 7.50009 1.74169 6.07509 2.64169 5.37509L7.13335 1.87509C8.48335 0.825092 10.6417 0.775092 12.0417 1.75843L17.1917 5.36676C18.1834 6.05843 18.9584 7.54176 18.9584 8.75009V14.8168C18.9584 17.0918 17.1084 18.9501 14.825 18.9501ZM7.90002 2.85843L3.40835 6.35843C2.81669 6.82509 2.29169 7.88343 2.29169 8.63343V14.8084C2.29169 16.4001 3.58335 17.7001 5.17502 17.7001H14.825C16.4167 17.7001 17.7084 16.4084 17.7084 14.8168V8.75009C17.7084 7.95009 17.1334 6.84176 16.475 6.39176L11.325 2.78343C10.375 2.11676 8.80835 2.15009 7.90002 2.85843Z" fill="currentColor"/>
</svg>
