<svg width="20" height="23" viewBox="0 0 20 23" fill="none" xmlns="http://www.w3.org/2000/svg">
<path d="M12.9939 22.4573H6.71349C6.21198 22.4573 5.57368 22.4003 5.15195 21.9672C4.74162 21.5455 4.75302 21.0212 4.76442 20.6678V18.2629C1.89209 16.348 0 13.0197 0 9.85107C0 6.85336 1.34498 4.04943 3.68159 2.16874C6.01821 0.288046 9.0843 -0.418638 12.082 0.242453C14.9315 0.86935 17.3935 2.77284 18.6701 5.33741C21.1435 10.3184 18.7613 15.7097 14.9543 18.2743V20.5196C14.9657 20.8502 14.9771 21.4543 14.5098 21.933C14.1565 22.275 13.655 22.4573 12.9939 22.4573Z" fill="#FFD300"/>
<path d="M9.84071 13.2955C9.37018 13.2955 8.97998 12.9053 8.97998 12.4347V6.69654C8.97998 6.22601 9.37018 5.83582 9.84071 5.83582C10.3112 5.83582 10.7014 6.22601 10.7014 6.69654V12.4347C10.7014 12.9053 10.3112 13.2955 9.84071 13.2955Z" fill="black"/>
<path d="M9.84051 17.0246C9.77165 17.0246 9.69132 17.0131 9.61098 17.0016C9.54212 16.9902 9.47326 16.9672 9.40441 16.9328C9.33555 16.9098 9.26669 16.8754 9.19783 16.8295C9.14045 16.7836 9.08307 16.7377 9.02569 16.6918C8.81911 16.4737 8.69287 16.1753 8.69287 15.8769C8.69287 15.5786 8.81911 15.2802 9.02569 15.0621C9.08307 15.0162 9.14045 14.9703 9.19783 14.9244C9.26669 14.8785 9.33555 14.8441 9.40441 14.8211C9.47326 14.7867 9.54212 14.7637 9.61098 14.7523C9.76017 14.7178 9.92084 14.7178 10.0586 14.7523C10.1389 14.7637 10.2078 14.7867 10.2766 14.8211C10.3455 14.8441 10.4143 14.8785 10.4832 14.9244C10.5406 14.9703 10.5979 15.0162 10.6553 15.0621C10.8619 15.2802 10.9881 15.5786 10.9881 15.8769C10.9881 16.1753 10.8619 16.4737 10.6553 16.6918C10.5979 16.7377 10.5406 16.7836 10.4832 16.8295C10.4143 16.8754 10.3455 16.9098 10.2766 16.9328C10.2078 16.9672 10.1389 16.9902 10.0586 17.0016C9.9897 17.0131 9.90937 17.0246 9.84051 17.0246Z" fill="black"/>
</svg>
