<svg width="20" height="20" viewBox="0 0 20 20" fill="none" xmlns="http://www.w3.org/2000/svg">
<path d="M6.45823 15.4163C3.4749 15.4163 1.04156 12.983 1.04156 9.99967C1.04156 7.01634 3.4749 4.58301 6.45823 4.58301C6.7999 4.58301 7.08323 4.86634 7.08323 5.20801C7.08323 5.54967 6.7999 5.83301 6.45823 5.83301C4.15823 5.83301 2.29156 7.69967 2.29156 9.99967C2.29156 12.2997 4.15823 14.1663 6.45823 14.1663C8.75823 14.1663 10.6249 12.2997 10.6249 9.99967C10.6249 9.65801 10.9082 9.37467 11.2499 9.37467C11.5916 9.37467 11.8749 9.65801 11.8749 9.99967C11.8749 12.983 9.44156 15.4163 6.45823 15.4163Z" fill="white"/>
<path d="M13.3334 15.625C12.9918 15.625 12.7084 15.3417 12.7084 15C12.7084 14.6583 12.9918 14.375 13.3334 14.375C15.7418 14.375 17.7084 12.4083 17.7084 10C17.7084 7.59167 15.7418 5.625 13.3334 5.625C10.9251 5.625 8.95844 7.59167 8.95844 10C8.95844 10.3417 8.6751 10.625 8.33344 10.625C7.99177 10.625 7.70844 10.3417 7.70844 10C7.70844 6.9 10.2334 4.375 13.3334 4.375C16.4334 4.375 18.9584 6.9 18.9584 10C18.9584 13.1 16.4334 15.625 13.3334 15.625Z" fill="white"/>
</svg>
