<svg width="24" height="24" viewBox="0 0 24 24" fill="none" xmlns="http://www.w3.org/2000/svg">
<path d="M10 13C10.4295 13.5741 10.9774 14.0491 11.6066 14.3929C12.2357 14.7367 12.9315 14.9411 13.6467 14.9923C14.3618 15.0435 15.0796 14.9403 15.7513 14.6893C16.4231 14.4382 17.0331 14.045 17.54 13.54L20.54 10.54C21.4508 9.59695 21.9548 8.33394 21.9434 7.02296C21.932 5.71198 21.4061 4.45791 20.4791 3.53087C19.5521 2.60383 18.298 2.07799 16.987 2.0666C15.676 2.0552 14.413 2.55918 13.47 3.47L11.75 5.18" stroke="currentColor" stroke-width="2" stroke-linecap="round" stroke-linejoin="round"/>
<path d="M14 11C13.5705 10.4259 13.0226 9.95085 12.3934 9.60707C11.7643 9.26329 11.0685 9.05886 10.3533 9.00766C9.63816 8.95645 8.92037 9.05972 8.24864 9.31078C7.57691 9.56184 6.96688 9.95501 6.46 10.46L3.46 13.46C2.54918 14.403 2.04519 15.6661 2.05659 16.977C2.06798 18.288 2.59382 19.5421 3.52086 20.4691C4.4479 21.3962 5.70197 21.922 7.01296 21.9334C8.32394 21.9448 9.58695 21.4408 10.53 20.53L12.24 18.82" stroke="currentColor" stroke-width="2" stroke-linecap="round" stroke-linejoin="round"/>
</svg>

