<svg width="27" height="27" viewBox="0 0 27 27" fill="none" xmlns="http://www.w3.org/2000/svg">
<path d="M19.8225 10.8228H13.9162C13.455 10.8228 13.0725 10.4403 13.0725 9.979C13.0725 9.51775 13.455 9.13525 13.9162 9.13525H19.8225C20.2837 9.13525 20.6662 9.51775 20.6662 9.979C20.6662 10.4403 20.295 10.8228 19.8225 10.8228Z" fill="white"/>
<path d="M8.01005 11.6776C7.7963 11.6776 7.58255 11.5989 7.4138 11.4301L6.57005 10.5864C6.2438 10.2601 6.2438 9.72011 6.57005 9.39386C6.8963 9.06761 7.4363 9.06761 7.76255 9.39386L8.01005 9.64136L9.94505 7.70636C10.2713 7.38011 10.8113 7.38011 11.1375 7.70636C11.4638 8.03261 11.4638 8.57261 11.1375 8.89886L8.6063 11.4301C8.4488 11.5876 8.23505 11.6776 8.01005 11.6776Z" fill="white"/>
<path d="M19.8225 18.6973H13.9162C13.455 18.6973 13.0725 18.3148 13.0725 17.8535C13.0725 17.3923 13.455 17.0098 13.9162 17.0098H19.8225C20.2837 17.0098 20.6662 17.3923 20.6662 17.8535C20.6662 18.3148 20.295 18.6973 19.8225 18.6973Z" fill="white"/>
<path d="M8.01005 19.5528C7.7963 19.5528 7.58255 19.4741 7.4138 19.3054L6.57005 18.4616C6.2438 18.1354 6.2438 17.5954 6.57005 17.2691C6.8963 16.9429 7.4363 16.9429 7.76255 17.2691L8.01005 17.5166L9.94505 15.5816C10.2713 15.2554 10.8113 15.2554 11.1375 15.5816C11.4638 15.9079 11.4638 16.4479 11.1375 16.7741L8.6063 19.3054C8.4488 19.4629 8.23505 19.5528 8.01005 19.5528Z" fill="white"/>
<path d="M16.875 25.5935H10.125C4.0163 25.5935 1.4063 22.9835 1.4063 16.8748V10.1248C1.4063 4.01601 4.0163 1.40601 10.125 1.40601H16.875C22.9838 1.40601 25.5938 4.01601 25.5938 10.1248V16.8748C25.5938 22.9835 22.9838 25.5935 16.875 25.5935ZM10.125 3.09351C4.9388 3.09351 3.0938 4.93851 3.0938 10.1248V16.8748C3.0938 22.061 4.9388 23.906 10.125 23.906H16.875C22.0613 23.906 23.9063 22.061 23.9063 16.8748V10.1248C23.9063 4.93851 22.0613 3.09351 16.875 3.09351H10.125Z" fill="white"/>
</svg>
