<svg width="20" height="21" viewBox="0 0 20 21" fill="none" xmlns="http://www.w3.org/2000/svg">
<path d="M13.9214 20.3626H6.30231C3.04517 20.3626 1.7785 19.1535 1.7785 16.0444V8.77166C1.7785 8.39893 2.10231 8.08984 2.49279 8.08984H17.7309C18.1214 8.08984 18.4452 8.39893 18.4452 8.77166V16.0444C18.4452 19.1535 17.1785 20.3626 13.9214 20.3626ZM3.20707 9.45348V16.0444C3.20707 18.3898 3.84517 18.9989 6.30231 18.9989H13.9214C16.3785 18.9989 17.0166 18.3898 17.0166 16.0444V9.45348H3.20707Z" fill="currentColor"/>
<path d="M17.2548 9.4567H2.96908C1.30242 9.4567 0.350037 8.54761 0.350037 6.9567L0.350037 6.04761C0.350037 4.4567 1.30242 3.54761 2.96908 3.54761L17.2548 3.54761C18.8738 3.54761 19.8738 4.50215 19.8738 6.04761V6.9567C19.8738 8.50215 18.8738 9.4567 17.2548 9.4567ZM2.96908 4.91124C2.10242 4.91124 1.77861 5.22033 1.77861 6.04761V6.9567C1.77861 7.78397 2.10242 8.09306 2.96908 8.09306H17.2548C18.0929 8.09306 18.4453 7.7567 18.4453 6.9567V6.04761C18.4453 5.24761 18.0929 4.91124 17.2548 4.91124L2.96908 4.91124Z" fill="currentColor"/>
<path d="M9.76917 4.91107H4.51202C4.31203 4.91107 4.12155 4.82925 3.98822 4.69289C3.40726 4.0838 3.42631 3.14743 4.03583 2.56562L5.38822 1.27471C6.01679 0.674707 7.05488 0.674707 7.68345 1.27471L10.2739 3.74743C10.4739 3.93834 10.5406 4.23834 10.4263 4.49289C10.3215 4.74743 10.0644 4.91107 9.76917 4.91107ZM5.03583 3.54743L8.05488 3.54743L6.67393 2.23834C6.59774 2.16562 6.47393 2.16562 6.39774 2.23834L5.04536 3.52925C5.04536 3.53834 5.03583 3.53834 5.03583 3.54743Z" fill="currentColor"/>
<path d="M15.7025 4.91107H10.4454C10.1596 4.91107 9.89298 4.74743 9.78822 4.49289C9.67393 4.23834 9.7406 3.94743 9.9406 3.74743L12.5311 1.27471C13.1596 0.674707 14.1977 0.674707 14.8263 1.27471L16.1787 2.56562C16.7882 3.14743 16.8168 4.0838 16.2263 4.69289C16.093 4.82925 15.9025 4.91107 15.7025 4.91107ZM12.1787 3.54743L15.1977 3.54743C15.1882 3.53834 15.1882 3.53834 15.1787 3.52925L13.8263 2.23834C13.7501 2.16562 13.6263 2.16562 13.5501 2.23834L12.1787 3.54743Z" fill="currentColor"/>
<path d="M8.18803 15.0444C7.92136 15.0444 7.64517 14.9808 7.39755 14.8535C6.8547 14.5717 6.52136 14.0353 6.52136 13.4535V8.77166C6.52136 8.39893 6.84517 8.08984 7.23565 8.08984H12.988C13.3785 8.08984 13.7023 8.39893 13.7023 8.77166V13.4353C13.7023 14.0262 13.369 14.5626 12.8261 14.8353C12.2833 15.1171 11.6261 15.0808 11.1118 14.7535L10.2642 14.208C10.188 14.1535 10.0833 14.1535 9.99755 14.208L9.10231 14.7717C8.82612 14.9535 8.50231 15.0444 8.18803 15.0444ZM7.94993 9.45348V13.4444C7.94993 13.5626 8.02612 13.6171 8.07374 13.6444C8.12136 13.6717 8.2166 13.6989 8.32136 13.6353L9.2166 13.0717C9.77851 12.7171 10.5023 12.7171 11.0547 13.0717L11.9023 13.6171C12.0071 13.6808 12.1023 13.6535 12.1499 13.6262C12.1976 13.5989 12.2737 13.5444 12.2737 13.4262V9.44439H7.94993V9.45348Z" fill="currentColor"/>
</svg>
