<svg width="20" height="20" viewBox="0 0 20 20" fill="none" xmlns="http://www.w3.org/2000/svg">
<path d="M10.875 13.5416H9.30835C8.20001 13.5416 7.29167 12.6083 7.29167 11.4583C7.29167 11.1166 7.575 10.8333 7.91667 10.8333C8.25833 10.8333 8.54167 11.1166 8.54167 11.4583C8.54167 11.9166 8.88335 12.2916 9.30835 12.2916H10.875C11.2 12.2916 11.4583 11.9999 11.4583 11.6416C11.4583 11.1916 11.3333 11.1249 11.05 11.0249L8.54167 10.1499C8.00833 9.95827 7.29167 9.57495 7.29167 8.34995C7.29167 7.30828 8.11668 6.44995 9.12501 6.44995H10.6917C11.8 6.44995 12.7083 7.38328 12.7083 8.53328C12.7083 8.87495 12.425 9.15828 12.0833 9.15828C11.7417 9.15828 11.4583 8.87495 11.4583 8.53328C11.4583 8.07495 11.1167 7.69995 10.6917 7.69995H9.12501C8.80001 7.69995 8.54167 7.99162 8.54167 8.34995C8.54167 8.79995 8.66666 8.86661 8.94999 8.96661L11.4583 9.84161C11.9917 10.0333 12.7083 10.4166 12.7083 11.6416C12.7083 12.6916 11.8833 13.5416 10.875 13.5416Z" fill="#FF3737"/>
<path d="M10 14.375C9.65833 14.375 9.375 14.0917 9.375 13.75V6.25C9.375 5.90833 9.65833 5.625 10 5.625C10.3417 5.625 10.625 5.90833 10.625 6.25V13.75C10.625 14.0917 10.3417 14.375 10 14.375Z" fill="#FF3737"/>
<path d="M10 18.9584C5.05833 18.9584 1.04167 14.9417 1.04167 10.0001C1.04167 5.05841 5.05833 1.04175 10 1.04175C10.3417 1.04175 10.625 1.32508 10.625 1.66675C10.625 2.00841 10.3417 2.29175 10 2.29175C5.75 2.29175 2.29167 5.75008 2.29167 10.0001C2.29167 14.2501 5.75 17.7084 10 17.7084C14.25 17.7084 17.7083 14.2501 17.7083 10.0001C17.7083 9.65841 17.9917 9.37508 18.3333 9.37508C18.675 9.37508 18.9583 9.65841 18.9583 10.0001C18.9583 14.9417 14.9417 18.9584 10 18.9584Z" fill="#FF3737"/>
<path d="M18.3333 5.62508C17.9917 5.62508 17.7083 5.34175 17.7083 5.00008V2.29175H15C14.6583 2.29175 14.375 2.00841 14.375 1.66675C14.375 1.32508 14.6583 1.04175 15 1.04175H18.3333C18.675 1.04175 18.9583 1.32508 18.9583 1.66675V5.00008C18.9583 5.34175 18.675 5.62508 18.3333 5.62508Z" fill="#FF3737"/>
<path d="M14.1666 6.45828C14.0083 6.45828 13.85 6.39995 13.725 6.27495C13.4833 6.03328 13.4833 5.63329 13.725 5.39162L17.8916 1.22495C18.1333 0.983285 18.5333 0.983285 18.7749 1.22495C19.0166 1.46662 19.0166 1.86662 18.7749 2.10828L14.6083 6.27495C14.4833 6.39995 14.325 6.45828 14.1666 6.45828Z" fill="#FF3737"/>
</svg>
