<svg width="20" height="20" viewBox="0 0 20 20" fill="none" xmlns="http://www.w3.org/2000/svg">
<path d="M12.5 18.9587H7.50002C2.97502 18.9587 1.04169 17.0253 1.04169 12.5003V7.50033C1.04169 2.97533 2.97502 1.04199 7.50002 1.04199H11.6667C12.0084 1.04199 12.2917 1.32533 12.2917 1.66699C12.2917 2.00866 12.0084 2.29199 11.6667 2.29199H7.50002C3.65835 2.29199 2.29169 3.65866 2.29169 7.50033V12.5003C2.29169 16.342 3.65835 17.7087 7.50002 17.7087H12.5C16.3417 17.7087 17.7084 16.342 17.7084 12.5003V8.33366C17.7084 7.99199 17.9917 7.70866 18.3334 7.70866C18.675 7.70866 18.9584 7.99199 18.9584 8.33366V12.5003C18.9584 17.0253 17.025 18.9587 12.5 18.9587Z" fill="white"/>
<path d="M18.3334 8.95841H15C12.15 8.95841 11.0417 7.85007 11.0417 5.00007V1.66674C11.0417 1.41674 11.1917 1.18341 11.425 1.09174C11.6584 0.991739 11.925 1.05007 12.1084 1.22507L18.775 7.89174C18.95 8.06674 19.0084 8.34174 18.9084 8.57507C18.8084 8.8084 18.5834 8.95841 18.3334 8.95841ZM12.2917 3.17507V5.00007C12.2917 7.15007 12.85 7.70841 15 7.70841H16.825L12.2917 3.17507Z" fill="white"/>
<path d="M10.8333 11.458H5.83331C5.49165 11.458 5.20831 11.1747 5.20831 10.833C5.20831 10.4913 5.49165 10.208 5.83331 10.208H10.8333C11.175 10.208 11.4583 10.4913 11.4583 10.833C11.4583 11.1747 11.175 11.458 10.8333 11.458Z" fill="white"/>
<path d="M9.16665 14.792H5.83331C5.49165 14.792 5.20831 14.5087 5.20831 14.167C5.20831 13.8253 5.49165 13.542 5.83331 13.542H9.16665C9.50831 13.542 9.79165 13.8253 9.79165 14.167C9.79165 14.5087 9.50831 14.792 9.16665 14.792Z" fill="white"/>
</svg>
