<svg width="10" height="10" viewBox="0 0 10 10" fill="none" xmlns="http://www.w3.org/2000/svg">
<path d="M4.6091 9.2182C2.06682 9.2182 0 7.15138 0 4.6091C0 2.06682 2.06682 0 4.6091 0C7.15138 0 9.2182 2.06682 9.2182 4.6091C9.2182 7.15138 7.15138 9.2182 4.6091 9.2182Z" fill="#33DA00"/>
<path d="M3.75055 6.50845C3.61683 6.50845 3.48312 6.45919 3.37756 6.35362L2.35009 5.32615C2.146 5.12206 2.146 4.78426 2.35009 4.58017C2.55417 4.37609 2.89197 4.37609 3.09606 4.58017L3.75055 5.23466L6.12218 2.86303C6.32627 2.65894 6.66407 2.65894 6.86816 2.86303C7.07224 3.06711 7.07224 3.40491 6.86816 3.609L4.12353 6.35362C4.02501 6.45919 3.88426 6.50845 3.75055 6.50845Z" fill="#CBF9BD"/>
</svg>
