<svg width="20" height="21" viewBox="0 0 20 21" fill="none" xmlns="http://www.w3.org/2000/svg">
<path d="M14.1667 8.83333V7.16667C14.1667 4.86548 12.3012 3 10 3C7.69881 3 5.83333 4.86548 5.83333 7.16667V8.83333M10 12.5833V14.25M7.33333 18H12.6667C14.0668 18 14.7669 18 15.3016 17.7275C15.772 17.4878 16.1545 17.1054 16.3942 16.635C16.6667 16.1002 16.6667 15.4001 16.6667 14V12.8333C16.6667 11.4332 16.6667 10.7331 16.3942 10.1984C16.1545 9.72795 15.772 9.3455 15.3016 9.10582C14.7669 8.83333 14.0668 8.83333 12.6667 8.83333H7.33333C5.9332 8.83333 5.23314 8.83333 4.69836 9.10582C4.22795 9.3455 3.8455 9.72795 3.60582 10.1984C3.33333 10.7331 3.33333 11.4332 3.33333 12.8333V14C3.33333 15.4001 3.33333 16.1002 3.60582 16.635C3.8455 17.1054 4.22795 17.4878 4.69836 17.7275C5.23314 18 5.9332 18 7.33333 18Z" stroke="white" stroke-width="1.2" stroke-linecap="round" stroke-linejoin="round"/>
</svg>
