<svg width="10" height="10" viewBox="0 0 10 10" fill="none" xmlns="http://www.w3.org/2000/svg">
<path d="M4.6091 9.2182C2.06682 9.2182 0 7.15138 0 4.6091C0 2.06682 2.06682 0 4.6091 0C7.15138 0 9.2182 2.06682 9.2182 4.6091C9.2182 7.15138 7.15138 9.2182 4.6091 9.2182Z" fill="#EBB351"/>
<path d="M4.45647 5.24832C4.25755 5.24832 4.09259 5.08336 4.09259 4.88444V2.4586C4.09259 2.25968 4.25755 2.09473 4.45647 2.09473C4.65539 2.09473 4.82034 2.25968 4.82034 2.4586V4.88444C4.82034 5.08336 4.65539 5.24832 4.45647 5.24832Z" fill="#FEF5CB"/>
<path d="M4.20223 4.66025C4.34115 4.51787 4.57442 4.51501 4.71679 4.65393L5.90356 5.79862C6.04593 5.93753 6.0488 6.1708 5.90988 6.31318C5.77096 6.45555 5.5377 6.45842 5.39532 6.3195L4.20855 5.17481C4.06618 5.03589 4.06331 4.80262 4.20223 4.66025Z" fill="#FEF5CB"/>
</svg>
