<svg width="20" height="21" viewBox="0 0 20 21" fill="none" xmlns="http://www.w3.org/2000/svg">
<path d="M14.5417 19.4583C13.6 19.4583 12.6083 19.2333 11.5833 18.8C10.5833 18.375 9.57499 17.7917 8.59166 17.0833C7.61666 16.3667 6.67499 15.5667 5.78332 14.6917C4.89999 13.8 4.09999 12.8583 3.39166 11.8917C2.67499 10.8917 2.09999 9.89167 1.69166 8.925C1.25832 7.89167 1.04166 6.89167 1.04166 5.95001C1.04166 5.3 1.15832 4.68334 1.38332 4.10834C1.61666 3.51667 1.99166 2.96667 2.49999 2.49167C3.14166 1.85834 3.87499 1.54167 4.65832 1.54167C4.98332 1.54167 5.31666 1.61667 5.59999 1.75001C5.92499 1.90001 6.19999 2.12501 6.39999 2.42501L8.33332 5.15C8.50832 5.39167 8.64166 5.625 8.73332 5.85834C8.84166 6.10834 8.89999 6.35834 8.89999 6.60001C8.89999 6.91667 8.80832 7.22501 8.63332 7.51667C8.50832 7.74167 8.31666 7.98334 8.07499 8.22501L7.50832 8.81667C7.51666 8.84167 7.52499 8.85834 7.53332 8.87501C7.63332 9.05 7.83332 9.35 8.21666 9.8C8.62499 10.2667 9.00832 10.6917 9.39166 11.0833C9.88332 11.5667 10.2917 11.95 10.675 12.2667C11.15 12.6667 11.4583 12.8667 11.6417 12.9583L11.625 13L12.2333 12.4C12.4917 12.1417 12.7417 11.95 12.9833 11.825C13.4417 11.5417 14.025 11.4917 14.6083 11.7333C14.825 11.825 15.0583 11.95 15.3083 12.125L18.075 14.0917C18.3833 14.3 18.6083 14.5667 18.7417 14.8833C18.8667 15.2 18.925 15.4917 18.925 15.7833C18.925 16.1833 18.8333 16.5833 18.6583 16.9583C18.4833 17.3333 18.2667 17.6583 17.9917 17.9583C17.5167 18.4833 17 18.8583 16.4 19.1C15.825 19.3333 15.2 19.4583 14.5417 19.4583ZM4.65832 2.79167C4.19999 2.79167 3.77499 2.99167 3.36666 3.39167C2.98332 3.75001 2.71666 4.14167 2.54999 4.56667C2.37499 5.00001 2.29166 5.45834 2.29166 5.95001C2.29166 6.72501 2.47499 7.56667 2.84166 8.43334C3.21666 9.31667 3.74166 10.2333 4.40832 11.15C5.07499 12.0667 5.83332 12.9583 6.66666 13.8C7.49999 14.625 8.39999 15.3917 9.32499 16.0667C10.225 16.725 11.15 17.2583 12.0667 17.6417C13.4917 18.25 14.825 18.3917 15.925 17.9333C16.35 17.7583 16.725 17.4917 17.0667 17.1083C17.2583 16.9 17.4083 16.675 17.5333 16.4083C17.6333 16.2 17.6833 15.9833 17.6833 15.7667C17.6833 15.6333 17.6583 15.5 17.5917 15.35C17.5667 15.3 17.5167 15.2083 17.3583 15.1L14.5917 13.1333C14.425 13.0167 14.275 12.9333 14.1333 12.875C13.95 12.8 13.875 12.725 13.5917 12.9C13.425 12.9833 13.275 13.1083 13.1083 13.275L12.475 13.9C12.15 14.2167 11.65 14.2917 11.2667 14.15L11.0417 14.05C10.7 13.8667 10.3 13.5833 9.85832 13.2083C9.45832 12.8667 9.02499 12.4667 8.49999 11.95C8.09166 11.5333 7.68332 11.0917 7.25832 10.6C6.86666 10.1417 6.58332 9.75 6.40832 9.425L6.30832 9.175C6.25832 8.98334 6.24166 8.875 6.24166 8.75834C6.24166 8.45834 6.34999 8.19167 6.55832 7.98334L7.18332 7.33334C7.34999 7.16667 7.47499 7.00834 7.55832 6.86667C7.62499 6.75834 7.64999 6.66667 7.64999 6.58334C7.64999 6.51667 7.62499 6.41667 7.58332 6.31667C7.52499 6.18334 7.43332 6.03334 7.31666 5.875L5.38332 3.14167C5.29999 3.02501 5.19999 2.94167 5.07499 2.88334C4.94166 2.825 4.79999 2.79167 4.65832 2.79167ZM11.625 13.0083L11.4917 13.575L11.7167 12.9917C11.675 12.9833 11.6417 12.9917 11.625 13.0083Z" fill="white"/>
</svg>
