<svg width="69" height="116" viewBox="0 0 69 116" fill="none" xmlns="http://www.w3.org/2000/svg">
<g clip-path="url(#clip0_1622_5088)">
<path d="M72.7403 65.091C69.8543 76.715 66.9683 88.3391 64.0823 99.9631C62.3806 106.817 56.1411 110.577 49.2956 108.878C38.1414 106.108 26.9873 103.341 15.8335 100.569C9.24081 98.9314 5.42447 92.5982 7.05865 86.0162C12.8675 62.6199 18.6764 39.2232 24.4843 15.8267C26.1217 9.23183 32.4562 5.42085 39.0359 7.05801C50.2626 9.85145 61.4923 12.6345 72.7201 15.4237C79.2709 17.0511 83.0939 23.384 81.4716 29.9219C78.5629 41.6455 75.651 53.3679 72.7399 65.0909L72.7403 65.091ZM20.2466 51.9895C17.3478 63.665 14.4471 75.34 11.5511 87.0163C10.4909 91.2905 12.6733 95.0409 16.9296 96.1077C28.1535 98.9207 39.3849 101.705 50.621 104.471C54.7923 105.497 58.5011 103.22 59.5651 99.0566C59.9502 97.5502 60.3163 96.039 60.6909 94.5301C66.12 72.6633 71.5515 50.7971 76.9768 28.9294C78.0348 24.6658 75.8135 20.9583 71.5592 19.8631C70.1276 19.4945 68.6974 19.1161 67.2516 18.8128C66.9213 18.7435 66.447 18.8629 66.1811 19.0741C65.2649 19.8022 64.4352 20.6397 63.5185 21.3677C63.2532 21.5785 62.7717 21.7048 62.4486 21.6266C56.7027 20.2309 50.9669 18.7926 45.2249 17.3816C44.7563 17.2663 44.4793 17.0675 44.3181 16.5945C43.9404 15.4855 43.5358 14.383 43.0717 13.3082C42.9455 13.0158 42.6051 12.7057 42.3014 12.6192C40.9051 12.2204 39.4889 11.8915 38.0773 11.5486C33.669 10.4764 30.0073 12.6944 28.9088 17.1129C26.0185 28.7379 23.1344 40.3644 20.2468 51.9906L20.2466 51.9895Z" fill="black" stroke="white" stroke-width="6.87315" stroke-miterlimit="10"/>
<path d="M34.6138 96.7202C33.3533 96.4083 32.0901 96.1073 30.8341 95.7793C29.4968 95.43 28.7597 94.2733 29.0494 93.0209C29.3488 91.7274 30.543 90.9945 31.9236 91.3237C34.4743 91.9321 37.0189 92.5649 39.5589 93.2163C40.9371 93.5696 41.6521 94.7624 41.3168 96.0499C40.9815 97.337 39.8003 97.9933 38.3949 97.6559C37.1321 97.353 35.8743 97.0322 34.6138 96.7202Z" fill="black" stroke="white" stroke-width="6.87315" stroke-miterlimit="10"/>
<path d="M72.7403 65.091C69.8543 76.715 66.9683 88.3391 64.0823 99.9631C62.3806 106.817 56.1411 110.577 49.2956 108.878C38.1414 106.108 26.9873 103.341 15.8335 100.569C9.24081 98.9314 5.42447 92.5982 7.05865 86.0162C12.8675 62.6199 18.6764 39.2232 24.4843 15.8267C26.1217 9.23183 32.4562 5.42085 39.0359 7.05801C50.2626 9.85145 61.4923 12.6345 72.7201 15.4237C79.2709 17.0511 83.0939 23.384 81.4716 29.9219C78.5629 41.6455 75.651 53.3679 72.7399 65.0909L72.7403 65.091ZM20.2466 51.9895C17.3478 63.665 14.4471 75.34 11.5511 87.0163C10.4909 91.2905 12.6733 95.0409 16.9296 96.1077C28.1535 98.9207 39.3849 101.705 50.621 104.471C54.7923 105.497 58.5011 103.22 59.5651 99.0566C59.9502 97.5502 60.3163 96.039 60.6909 94.5301C66.12 72.6633 71.5515 50.7971 76.9768 28.9294C78.0348 24.6658 75.8135 20.9583 71.5592 19.8631C70.1276 19.4945 68.6974 19.1161 67.2516 18.8128C66.9213 18.7435 66.447 18.8629 66.1811 19.0741C65.2649 19.8022 64.4352 20.6397 63.5185 21.3677C63.2532 21.5785 62.7717 21.7048 62.4486 21.6266C56.7027 20.2309 50.9669 18.7926 45.2249 17.3816C44.7563 17.2663 44.4793 17.0675 44.3181 16.5945C43.9404 15.4855 43.5358 14.383 43.0717 13.3082C42.9455 13.0158 42.6051 12.7057 42.3014 12.6192C40.9051 12.2204 39.4889 11.8915 38.0773 11.5486C33.669 10.4764 30.0073 12.6944 28.9088 17.1129C26.0185 28.7379 23.1344 40.3644 20.2468 51.9906L20.2466 51.9895Z" fill="black" stroke="black" stroke-width="0.0490939" stroke-miterlimit="10"/>
<path d="M20.2471 51.9898C23.134 40.3639 26.0182 28.7374 28.9086 17.1119C30.0072 12.693 33.6688 10.4755 38.0771 11.5477C39.4886 11.8911 40.9049 12.2194 42.3011 12.6182C42.6049 12.7048 42.9452 13.0149 43.0715 13.3072C43.5355 14.382 43.9401 15.4846 44.3178 16.5936C44.4788 17.066 44.7556 17.2652 45.2247 17.3807C50.9667 18.7917 56.7024 20.2304 62.4484 21.6257C62.7718 21.7044 63.253 21.5776 63.5183 21.3667C64.435 20.6388 65.2647 19.8012 66.1809 19.0732C66.4468 18.862 66.9211 18.7425 67.2514 18.8119C68.6972 19.1152 70.1278 19.4937 71.5589 19.8621C75.8133 20.9573 78.0346 24.6648 76.9766 28.9284C71.5508 50.796 66.1198 72.6623 60.6907 94.5291C60.316 96.0381 59.95 97.5492 59.5648 99.0556C58.5008 103.219 54.7921 105.496 50.6208 104.47C39.3851 101.704 28.1537 98.9199 16.9294 96.1068C12.673 95.0399 10.4907 91.2895 11.5509 87.0153C14.4469 75.3391 17.3476 63.6641 20.2473 51.9888L20.2471 51.9898ZM34.6139 96.7194C35.8742 97.0323 37.1319 97.3532 38.3947 97.656C39.8002 97.9934 40.9818 97.3373 41.3166 96.0501C41.652 94.7625 40.9369 93.5697 39.5587 93.2164C37.0187 92.565 34.4736 91.9321 31.9235 91.3238C30.5428 90.9946 29.3486 91.7275 29.0492 93.021C28.7596 94.2729 29.4967 95.4301 30.8339 95.7794C32.0899 96.1074 33.3531 96.4084 34.6138 96.7198L34.6139 96.7194Z" fill="#FFD300"/>
<path d="M34.6138 96.7202C33.3533 96.4083 32.0901 96.1073 30.8341 95.7793C29.4968 95.43 28.7597 94.2733 29.0494 93.0209C29.3488 91.7274 30.543 90.9945 31.9236 91.3237C34.4743 91.9321 37.0189 92.5649 39.5589 93.2163C40.9371 93.5696 41.6521 94.7624 41.3168 96.0499C40.9815 97.337 39.8003 97.9933 38.3949 97.6559C37.1321 97.353 35.8743 97.0322 34.6138 96.7202Z" fill="black"/>
<path d="M57.3515 66.3051L33.5796 46.4404C32.82 45.8056 31.6896 45.9068 31.0548 46.6664L31.0545 46.6668C30.4197 47.4264 30.5209 48.5568 31.2806 49.1916L55.0525 69.0564C55.8121 69.6911 56.9425 69.5899 57.5772 68.8303L57.5776 68.8299C58.2123 68.0703 58.1111 66.9399 57.3515 66.3051Z" fill="black"/>
<path d="M49.7644 68.8208L33.626 55.3349C32.8663 54.7001 31.736 54.8013 31.1012 55.561L31.1009 55.5613C30.4661 56.321 30.5673 57.4513 31.3269 58.0861L47.4653 71.572C48.225 72.2068 49.3553 72.1056 49.9901 71.3459L49.9904 71.3456C50.6252 70.5859 50.524 69.4556 49.7644 68.8208Z" fill="black"/>
<path d="M58.1203 58.1255L41.9819 44.6396C41.2223 44.0048 40.0919 44.106 39.4572 44.8656L39.4568 44.866C38.8221 45.6256 38.9233 46.756 39.6829 47.3908L55.8213 60.8767C56.5809 61.5115 57.7113 61.4102 58.3461 60.6506L58.3464 60.6502C58.9811 59.8906 58.8799 58.7603 58.1203 58.1255Z" fill="black"/>
</g>
<defs>
<clipPath id="clip0_1622_5088">
<rect width="65.5792" height="103.221" fill="white" transform="translate(24.8726) rotate(13.9435)"/>
</clipPath>
</defs>
</svg>
