<svg width="148" height="158" viewBox="0 0 148 158" fill="none" xmlns="http://www.w3.org/2000/svg">
<g clip-path="url(#clip0_1622_5101)">
<path d="M61.5415 94.9261C67.1615 92.8518 72.402 90.8988 77.6549 88.979C99.9032 80.8485 122.158 72.7358 144.403 64.5901C146.371 63.8697 148.274 63.2224 150.103 64.8151C152.029 66.4934 151.617 68.5415 151.048 70.667C148.613 79.7706 146.235 88.8907 143.808 97.997C142.966 101.152 141.644 102.169 138.513 101.902C113.233 99.7319 87.9565 97.5278 62.6788 95.3264C62.4455 95.3057 62.2233 95.1704 61.5415 94.9261Z" fill="white"/>
<path d="M62.8253 99.5849C68.1955 97.6016 73.5616 95.6031 78.9387 93.6378C84.585 91.5744 90.2312 89.5125 95.8775 87.4505C101.496 85.3982 107.115 83.3473 112.733 81.2963C118.352 79.2454 124.026 77.1724 129.672 75.1077C132.495 74.0753 135.318 73.043 138.141 72.0106C140.904 71.0003 143.653 69.9307 146.438 68.9811C146.989 68.7934 147.548 68.6333 148.124 68.5422C147.696 68.6002 147.268 68.6568 146.84 68.7148C147.239 68.6609 147.632 68.6471 148.031 68.6885C147.603 68.6306 147.175 68.574 146.748 68.516C147.065 68.5602 147.362 68.6361 147.661 68.7493L146.507 68.2621C146.832 68.4001 147.124 68.5726 147.41 68.7796L146.433 68.0247C146.752 68.2759 147.039 68.5505 147.296 68.8652L146.541 67.888C146.752 68.1668 146.924 68.4567 147.064 68.7782L146.576 67.6244C146.695 67.9294 146.777 68.2372 146.825 68.5602L146.652 67.2766C146.713 67.7693 146.695 68.2565 146.636 68.7493L146.808 67.4657C146.545 69.3634 145.899 71.2336 145.407 73.0816C144.851 75.1725 144.298 77.2635 143.746 79.3558C142.64 83.5391 141.539 87.7238 140.431 91.9057C140.127 93.0512 139.823 94.1967 139.518 95.3423C139.266 96.2932 139.048 97.2607 138.664 98.1689L139.151 97.015C138.97 97.4277 138.756 97.8211 138.482 98.1785L139.237 97.2014C139.059 97.4222 138.863 97.6209 138.639 97.7962L139.616 97.0413C139.391 97.2083 139.154 97.3435 138.897 97.4526L140.051 96.9654C139.712 97.1006 139.362 97.1834 139.001 97.2345C139.429 97.1765 139.856 97.1199 140.284 97.062C139.338 97.1779 138.392 97.0634 137.447 96.9819C136.171 96.8729 134.895 96.7625 133.619 96.6534C131.039 96.4312 128.456 96.209 125.875 95.9868C120.772 95.5465 115.669 95.1049 110.565 94.6632C100.3 93.7744 90.0338 92.8815 79.7696 91.9871C76.9209 91.7387 74.0736 91.4916 71.225 91.2432C69.8006 91.119 68.3763 90.9948 66.9533 90.8706C65.5304 90.7463 64.0605 90.6704 62.6279 90.491C63.0557 90.549 63.4836 90.6056 63.9115 90.6635C63.5402 90.5904 63.1827 90.3985 62.828 90.2702C61.7073 89.8616 60.1036 90.1736 59.1057 90.7574C58.1079 91.3412 57.1486 92.4922 56.8864 93.6447C56.6049 94.8813 56.6656 96.2698 57.3736 97.367L58.1286 98.3441C58.7317 98.9431 59.4425 99.3572 60.2595 99.5863C60.5314 99.6857 60.7978 99.8016 61.0697 99.8982C61.6894 100.12 62.3836 100.133 63.0364 100.189C63.9266 100.267 64.8168 100.344 65.707 100.423C67.5758 100.586 69.4459 100.748 71.3147 100.911C75.0232 101.234 78.7317 101.557 82.4402 101.88C89.8282 102.523 97.2149 103.166 104.603 103.807C112.02 104.45 119.437 105.092 126.855 105.732C130.564 106.052 134.272 106.371 137.982 106.69C138.634 106.745 139.284 106.806 139.936 106.759C140.8 106.697 141.717 106.611 142.539 106.313C144.513 105.6 146.122 104.363 147.18 102.523C148.063 100.989 148.476 99.2592 148.926 97.5671C149.406 95.7632 149.883 93.958 150.361 92.1527C151.308 88.5712 152.252 84.9897 153.199 81.4081C153.668 79.6319 154.138 77.8556 154.61 76.0793C155.055 74.4066 155.552 72.7379 155.937 71.05C156.171 70.0204 156.362 68.9397 156.355 67.8811C156.345 66.3961 155.985 65.176 155.381 63.8455C155.244 63.546 155.078 63.2755 154.882 63.0133C154.421 62.3964 153.981 61.7905 153.393 61.295C152.848 60.8354 152.242 60.3206 151.58 60.0073C150.917 59.694 150.234 59.3558 149.515 59.2303C147.964 58.9584 146.708 58.9722 145.158 59.2993C144.403 59.458 143.677 59.7313 142.955 59.9962C141.223 60.6311 139.489 61.2646 137.757 61.8995C134.264 63.1775 130.771 64.4556 127.276 65.7322C120.316 68.2759 113.356 70.8181 106.396 73.3604C99.4079 75.9123 92.4188 78.4629 85.431 81.0162C78.7027 83.4742 71.9771 85.9365 65.2585 88.4221C63.5926 89.0391 61.9268 89.656 60.2609 90.2702C59.0574 90.7146 58.0402 91.3508 57.3736 92.4895C56.7677 93.5246 56.511 95.0511 56.8864 96.2118C57.2618 97.3725 57.9892 98.5084 59.1057 99.0991C60.1988 99.6774 61.6218 100.032 62.828 99.5863L62.8253 99.5849Z" fill="white"/>
<path d="M60.4082 114.14C61.021 114.278 61.6283 114.489 62.248 114.543C89.6939 116.914 117.14 119.281 144.589 121.615C146.84 121.806 148.726 122.422 149.73 124.64C150.746 126.885 149.927 128.713 148.475 130.446C142.883 137.128 137.343 143.852 131.721 150.508C129.37 153.294 127.353 153.623 124.311 151.871C103.272 139.754 82.2424 127.621 61.2128 115.491C60.9189 115.321 60.6539 115.099 60.3765 114.9C60.3875 114.648 60.3986 114.394 60.4096 114.141L60.4082 114.14Z" fill="white"/>
<path d="M59.1249 118.797C60.1283 119.032 61.0544 119.25 62.0936 119.356C62.7961 119.428 63.5014 119.48 64.2053 119.541C65.5689 119.658 66.9325 119.777 68.2961 119.894C71.0826 120.134 73.8678 120.376 76.6544 120.616C82.2261 121.096 87.7992 121.578 93.3709 122.057C104.516 123.016 115.661 123.974 126.805 124.926C129.948 125.196 133.089 125.463 136.232 125.731C137.774 125.862 139.315 125.993 140.856 126.124C142.343 126.251 143.846 126.326 145.326 126.523C144.898 126.465 144.47 126.409 144.042 126.351C144.694 126.445 145.333 126.59 145.944 126.837L144.79 126.349C145.199 126.523 145.577 126.739 145.929 127.01L144.952 126.256C145.218 126.472 145.456 126.711 145.671 126.979L144.916 126.002C145.207 126.381 145.435 126.788 145.625 127.226L145.138 126.072C145.307 126.49 145.428 126.915 145.492 127.361L145.319 126.077C145.358 126.439 145.358 126.792 145.316 127.154L145.489 125.87C145.424 126.311 145.301 126.729 145.129 127.14L145.616 125.986C145.345 126.59 144.99 127.137 144.589 127.661L145.344 126.683C144.176 128.162 142.93 129.583 141.724 131.031C140.517 132.479 139.275 133.972 138.052 135.442C135.623 138.361 133.194 141.279 130.754 144.188C130.072 145 129.39 145.811 128.707 146.62C128.125 147.31 127.542 147.988 126.83 148.548C127.156 148.297 127.482 148.044 127.807 147.793C127.442 148.069 127.058 148.305 126.637 148.486L127.791 147.999C127.467 148.127 127.137 148.217 126.792 148.264C127.219 148.206 127.647 148.149 128.075 148.091C127.725 148.13 127.378 148.123 127.029 148.08C127.457 148.138 127.885 148.195 128.313 148.253C127.803 148.177 127.319 148.028 126.843 147.836L127.997 148.323C126.967 147.888 126.016 147.277 125.05 146.721C123.966 146.097 122.884 145.473 121.801 144.849C119.687 143.632 117.574 142.413 115.459 141.196C111.179 138.729 106.901 136.263 102.622 133.797C94.0651 128.863 85.5081 123.927 76.9511 118.992C74.58 117.624 72.2089 116.256 69.8377 114.888C68.6522 114.204 67.4666 113.521 66.281 112.836C65.1093 112.16 63.9099 111.525 62.8154 110.729C63.6132 112.118 64.4109 113.51 65.2073 114.9C65.2183 114.647 65.2294 114.393 65.2404 114.14C65.2928 112.936 64.6649 111.564 63.8257 110.725C62.9866 109.885 61.6133 109.256 60.4098 109.31C59.2063 109.364 57.8648 109.776 56.9939 110.725C56.123 111.673 55.6358 112.814 55.5792 114.14C55.571 114.317 55.5641 114.495 55.5558 114.672C55.5157 115.592 55.778 116.528 56.2058 117.338C56.7041 118.28 57.7461 119.007 58.6515 119.587C59.3913 120.06 60.1793 120.473 60.9412 120.912C62.4621 121.789 63.9817 122.666 65.5026 123.543C68.5694 125.313 71.6361 127.082 74.7028 128.852C80.8363 132.39 86.9711 135.928 93.1059 139.465C99.2408 143.002 105.376 146.538 111.51 150.074C114.579 151.842 117.647 153.609 120.715 155.377C121.408 155.776 122.091 156.202 122.82 156.536C123.678 156.93 124.586 157.364 125.527 157.537C126.989 157.805 128.003 157.812 129.461 157.569C129.718 157.526 129.966 157.462 130.21 157.374C130.816 157.157 131.437 156.908 132.002 156.592C133.599 155.696 134.779 154.356 135.937 152.981C137.056 151.653 138.171 150.323 139.286 148.991C141.533 146.304 143.773 143.611 146.013 140.918C147.142 139.56 148.273 138.204 149.403 136.847C150.696 135.297 152.074 133.782 153.234 132.13C153.841 131.267 154.28 130.272 154.612 129.275C154.772 128.794 154.824 128.304 154.892 127.8C154.964 127.262 155.041 126.759 154.997 126.22C154.868 124.652 154.505 123.374 153.789 121.966C153.657 121.706 153.503 121.459 153.331 121.225C152.936 120.685 152.534 120.108 152.038 119.647C150.663 118.373 148.934 117.461 147.086 117.117C145.182 116.764 143.228 116.672 141.301 116.507C137.774 116.207 134.246 115.906 130.72 115.605C123.666 115.002 116.61 114.399 109.556 113.793C102.502 113.187 95.4481 112.579 88.3927 111.972C81.3386 111.364 74.2846 110.755 67.2306 110.146C65.5206 109.999 63.8036 109.883 62.0964 109.699C62.5242 109.757 62.9521 109.814 63.3799 109.872C62.8072 109.789 62.2565 109.616 61.6948 109.485C60.4457 109.193 59.0959 109.315 57.9724 109.972C56.9704 110.559 56.0154 111.707 55.7531 112.86C55.4716 114.096 55.5323 115.485 56.2403 116.582C56.9083 117.617 57.8938 118.513 59.1276 118.801L59.1249 118.797Z" fill="white"/>
<path d="M52.3911 78.0123C54.1315 76.2719 55.3129 75.0918 56.4916 73.9118C74.2916 56.0911 92.0985 38.2759 109.879 20.4359C111.437 18.8735 112.971 17.4823 115.393 18.2952C117.771 19.093 118.298 21.0873 118.678 23.2625C120.099 31.4137 121.604 39.5512 123.039 47.7011C123.63 51.0549 122.838 52.6407 119.852 53.7338C97.9518 61.7484 76.0375 69.7244 54.1246 77.7045C53.8265 77.8135 53.4911 77.8218 52.3911 78.0109V78.0123Z" fill="white"/>
<path d="M55.807 81.4289C59.3665 77.8695 62.9246 74.3073 66.4826 70.7451C70.4175 66.8047 74.3537 62.8657 78.2886 58.9267C82.2234 54.9877 86.1596 51.0473 90.0931 47.107C94.028 43.1666 97.9614 39.2248 101.895 35.2831C105.795 31.3744 109.657 27.423 113.595 23.5544C113.962 23.1928 114.34 22.8436 114.744 22.5248C114.419 22.776 114.093 23.0286 113.767 23.2798C114.154 22.983 114.559 22.7236 115.008 22.529C114.623 22.6918 114.239 22.8533 113.854 23.0162C114.181 22.8823 114.515 22.7898 114.866 22.7429C114.438 22.8009 114.01 22.8574 113.582 22.9154C113.889 22.8823 114.191 22.885 114.497 22.9196C114.069 22.8616 113.642 22.805 113.214 22.747C113.661 22.8091 114.089 22.9334 114.504 23.1059L113.35 22.6187C113.675 22.7622 113.977 22.9347 114.261 23.1473L113.284 22.3923C113.539 22.5925 113.766 22.8174 113.969 23.07L113.214 22.0928C113.48 22.4379 113.687 22.8119 113.858 23.2121L113.371 22.0583C113.927 23.4123 114.083 24.9153 114.334 26.3451C114.67 28.2567 115.011 30.1668 115.352 32.0756C116.026 35.8489 116.71 39.6209 117.386 43.3943C117.756 45.4563 118.192 47.5196 118.475 49.5954L118.302 48.3118C118.387 48.9702 118.425 49.634 118.342 50.2938L118.515 49.0102C118.465 49.3649 118.38 49.7086 118.243 50.0398L118.73 48.886C118.613 49.1551 118.467 49.4049 118.287 49.6368L119.042 48.6596C118.85 48.8984 118.634 49.1096 118.395 49.3C118.721 49.0489 119.046 48.7963 119.372 48.5451C118.936 48.8805 118.451 49.1372 117.948 49.3552C118.333 49.1924 118.716 49.0309 119.101 48.868C118.081 49.2973 117.023 49.6437 115.984 50.0246C114.835 50.4442 113.687 50.8651 112.539 51.2847C110.286 52.1087 108.034 52.9313 105.781 53.7538C101.232 55.4156 96.6834 57.0759 92.133 58.7348C87.6047 60.3855 83.0777 62.0362 78.5494 63.6855C74.0211 65.3348 69.4928 66.9841 64.9644 68.6334C62.6886 69.4615 60.414 70.291 58.1381 71.1191C57.0119 71.529 55.8843 71.9389 54.7581 72.3502C53.9673 72.6386 53.1682 73.0306 52.3332 73.1631C51.9233 73.228 51.512 73.2873 51.1034 73.3563C50.4755 73.5054 49.9275 73.7938 49.461 74.2203C48.9352 74.5612 48.5198 75.0125 48.2175 75.5756C47.8642 76.1305 47.6737 76.7295 47.6447 77.3712C47.5012 78.013 47.5302 78.6548 47.7317 79.2979C48.1099 80.4669 48.8344 81.5945 49.951 82.1852L51.1048 82.6724C51.9605 82.9029 52.8176 82.9029 53.6733 82.6724C54.1812 82.5855 54.707 82.5413 55.2094 82.4226C55.8843 82.2639 56.5454 81.9506 57.1969 81.7132C58.8531 81.1101 60.5106 80.507 62.1668 79.9038C65.4365 78.7127 68.7061 77.523 71.9743 76.332C78.5577 73.9346 85.1397 71.5359 91.7217 69.1372C98.3258 66.7288 104.929 64.3204 111.531 61.9065C114.793 60.714 118.079 59.5726 121.319 58.3249C122.951 57.697 124.611 56.9475 125.788 55.595C126.668 54.5847 127.152 53.7386 127.61 52.4799C127.901 51.6808 127.981 50.781 128.038 49.946C128.074 49.3994 128.032 48.8529 127.963 48.3105C127.813 47.118 127.613 45.9435 127.403 44.7607C127.101 43.0575 126.797 41.3544 126.491 39.6527C125.875 36.2243 125.256 32.7974 124.641 29.3691C124.332 27.6439 124.026 25.9173 123.721 24.1907C123.479 22.8216 123.321 21.4014 122.898 20.0723C122.701 19.4498 122.429 18.8481 122.164 18.2546C122.047 17.991 121.914 17.7357 121.754 17.4941C120.965 16.303 120.214 15.5702 119.063 14.7504C118.827 14.582 118.58 14.4412 118.318 14.317C117.676 14.0147 116.932 13.6738 116.217 13.5082C114.755 13.1701 113.428 13.1618 111.962 13.482C110.012 13.9071 108.314 15.2196 106.913 16.5749C105.714 17.7343 104.553 18.9364 103.376 20.1164C100.904 22.5952 98.4321 25.074 95.9588 27.5528C90.9971 32.5255 86.0341 37.4982 81.0696 42.4696C76.1217 47.4244 71.1738 52.3778 66.2245 57.3312C61.4561 62.1038 56.6903 66.8806 51.9191 71.6504C50.9364 72.6331 49.9551 73.6144 48.9725 74.5971C48.0961 75.4735 47.5578 76.7736 47.5578 78.013C47.5578 79.2524 48.0836 80.6132 48.9725 81.4289C49.893 82.2736 51.1021 82.9016 52.3884 82.8436C53.6747 82.7856 54.8796 82.3536 55.8043 81.4289H55.807Z" fill="white"/>
<path d="M42.396 64.1514C44.1502 59.3167 45.9071 54.4834 47.6586 49.6459C52.6009 35.9905 57.4909 22.3159 62.5533 8.70466C63.0971 7.24307 64.3931 5.5703 65.7539 5.01686C67.8283 4.17496 68.938 6.18862 70.0159 7.72888C73.2468 12.3428 76.5289 16.9222 79.7778 21.525C81.8812 24.5048 81.7914 25.5082 79.194 28.1125C67.6227 39.7101 56.0472 51.3035 44.4676 62.8927C43.9418 63.4186 43.3676 63.8961 42.8156 64.3957C42.6762 64.3143 42.5368 64.2329 42.396 64.1514Z" fill="white"/>
<path d="M47.0539 65.4362C49.6942 58.16 52.3358 50.8838 54.965 43.602C57.5846 36.3465 60.2 29.0896 62.8458 21.8437C63.5883 19.8107 64.3336 17.7777 65.0803 15.7475C65.4474 14.751 65.8159 13.7532 66.1844 12.7567C66.5557 11.7547 66.898 10.7361 67.3065 9.74794L66.8193 10.9018C67.0774 10.3 67.4128 9.73966 67.8075 9.21934L67.0525 10.1965C67.3976 9.75209 67.7826 9.34494 68.2243 8.99437L67.2471 9.74933C67.519 9.54092 67.8061 9.36012 68.118 9.21796L66.9642 9.70516C67.1947 9.60717 67.4307 9.5354 67.6791 9.49675C67.2513 9.55472 66.8234 9.61131 66.3956 9.66928C66.5902 9.64581 66.7806 9.64305 66.9752 9.66652C66.5474 9.60855 66.1195 9.55196 65.6917 9.49399C65.8739 9.52298 66.0464 9.57128 66.2175 9.64167L65.0637 9.15447C65.2763 9.2497 65.4709 9.36978 65.6572 9.51056L64.68 8.75561C65.0333 9.03716 65.3315 9.3753 65.6089 9.73C65.3577 9.40428 65.1051 9.07856 64.8539 8.75285C65.5716 9.68998 66.2148 10.6892 66.8938 11.654C67.7385 12.8533 68.5845 14.0513 69.4333 15.2493C71.1295 17.6439 72.8313 20.0329 74.5275 22.4275C75.3266 23.5551 76.2444 24.6717 76.802 25.9469L76.3148 24.7931C76.4404 25.0926 76.5384 25.399 76.584 25.722L76.4114 24.4384C76.4363 24.651 76.4363 24.8594 76.4101 25.0719L76.5826 23.7884C76.5494 24.0037 76.4915 24.2107 76.4101 24.4136L76.8972 23.2598C76.7316 23.6517 76.4984 24.0037 76.2389 24.3391L76.9939 23.3619C76.0029 24.6206 74.7732 25.7082 73.6442 26.8399C72.4007 28.0862 71.1558 29.3325 69.9122 30.5788C67.4528 33.0438 64.9919 35.5087 62.5325 37.9723C57.5846 42.9299 52.6353 47.8861 47.6847 52.8409C44.9519 55.5777 42.2758 58.3877 39.4051 60.9797C41.3566 60.7285 43.3082 60.4759 45.2583 60.2247C45.1189 60.1433 44.9795 60.0619 44.8388 59.9804C44.2839 59.6271 43.6849 59.4367 43.0432 59.4077C42.4014 59.2641 41.7596 59.2931 41.1165 59.4946C40.4885 59.6437 39.9406 59.9321 39.4741 60.3586C38.9482 60.6995 38.5328 61.1508 38.2305 61.7139C37.6384 62.8346 37.3417 64.1927 37.7433 65.4362C38.145 66.6798 38.8544 67.6762 39.9626 68.3235C40.102 68.405 40.2414 68.4864 40.3822 68.5678L41.536 69.055C42.1778 69.2565 42.8196 69.2855 43.4627 69.142C43.8989 69.142 44.3046 69.0302 44.6814 68.8121C45.2804 68.6175 45.798 68.2849 46.2355 67.8129C47.1588 66.9793 48.0573 66.1387 48.9365 65.2596C49.8156 64.3804 50.7266 63.4681 51.6209 62.5724C53.4248 60.7671 55.2287 58.9605 57.0325 57.1553C60.6403 53.5434 64.2467 49.9315 67.853 46.3182C71.4456 42.7201 75.0382 39.1206 78.6307 35.5212C79.5389 34.6102 80.447 33.7007 81.3566 32.7898C82.1584 31.9852 83.0072 31.2068 83.7235 30.3221C84.2038 29.73 84.7435 29.1117 85.1037 28.4257C85.3646 27.9289 85.5799 27.3947 85.7703 26.8689C85.8242 26.7212 85.8614 26.5694 85.8904 26.4148C86.1388 25.0968 86.1223 24.3363 85.8766 23.0086C85.7427 22.2854 85.3673 21.5442 85.0692 20.908C84.6179 19.946 83.9554 19.0889 83.344 18.2263C82.6208 17.2036 81.8962 16.1837 81.1716 15.1623C79.7114 13.1045 78.2484 11.0481 76.7924 8.98747C76.0692 7.96477 75.3487 6.94207 74.6296 5.91799C73.8705 4.83594 73.1349 3.74837 72.2972 2.72152C71.3462 1.55528 69.9357 0.585026 68.4658 0.222042C67.2416 -0.0802138 66.1071 -0.0677923 64.8829 0.230323C64.2936 0.373861 63.7111 0.656795 63.1729 0.914886C62.9686 1.01288 62.774 1.12605 62.5891 1.25441C61.8838 1.74575 61.1703 2.28263 60.592 2.92855C60.0137 3.57446 59.4271 4.32389 58.962 5.09541C58.5121 5.8407 58.1836 6.67018 57.8799 7.48033C57.6591 8.06966 57.4411 8.66037 57.223 9.25109C56.3411 11.6319 55.4633 14.0127 54.5896 16.3962C52.8423 21.1633 51.1102 25.9359 49.3837 30.7099C47.6571 35.4839 45.936 40.2606 44.2108 45.0346C42.4856 49.8086 40.7521 54.5826 39.02 59.3566C38.5949 60.5284 38.1698 61.7001 37.7447 62.8705C37.5432 63.5123 37.5142 64.1541 37.6578 64.7972C37.6867 65.4404 37.8786 66.0394 38.2305 66.5928C38.5342 67.1559 38.9482 67.6072 39.4741 67.9481C39.9406 68.3746 40.4885 68.6631 41.1165 68.8121C42.3531 69.0937 43.7415 69.033 44.8388 68.3249L45.8159 67.57C46.4149 66.9668 46.829 66.2561 47.0581 65.439L47.0539 65.4362Z" fill="white"/>
<path d="M28.4576 57.5C28.3016 55.8383 28.1457 54.229 28.0021 52.6183C27.1202 42.7308 26.2024 32.8461 25.4171 22.9503C25.3315 21.8793 25.7138 20.386 26.4508 19.7676C26.9794 19.3246 28.5846 19.7732 29.4913 20.2438C32.4504 21.7785 35.2922 23.5396 38.2181 25.142C39.6038 25.9011 40.109 26.921 39.5679 28.4006C36.0361 38.0438 32.496 47.6842 28.9489 57.3219C28.9296 57.373 28.7944 57.3827 28.459 57.5H28.4576Z" fill="white"/>
<path d="M33.2884 57.4996C32.8536 52.8526 32.4368 48.2028 32.0186 43.5544C31.5977 38.8729 31.1809 34.1914 30.7847 29.5071C30.6743 28.1959 30.5653 26.8848 30.4576 25.5722C30.4052 24.9222 30.3527 24.2735 30.3003 23.6234C30.2575 23.0838 30.2092 22.5593 30.2768 22.0197L30.1043 23.3032C30.1637 22.8699 30.2699 22.4448 30.4369 22.0404L29.9497 23.1942C30.0546 22.9471 30.1802 22.7125 30.3431 22.4972L29.5881 23.4744C29.6779 23.3598 29.7758 23.2522 29.889 23.1611C29.5633 23.4123 29.2376 23.6648 28.9119 23.916C28.9574 23.8843 29.0029 23.8594 29.054 23.8374L27.9002 24.3246C27.9816 24.2928 28.0631 24.2735 28.15 24.2597C27.7222 24.3177 27.2943 24.3742 26.8665 24.4322C27.0928 24.4018 27.3205 24.4156 27.5469 24.4446C27.119 24.3867 26.6912 24.3301 26.2633 24.2721C26.7947 24.3466 27.3136 24.5067 27.8077 24.7138L26.6539 24.2266C27.2791 24.4929 27.874 24.8421 28.4702 25.1678C29.1327 25.5294 29.791 25.8993 30.4466 26.2733C31.7591 27.0214 33.062 27.7846 34.3759 28.5285C34.7362 28.7328 35.0978 28.9343 35.4594 29.1358C35.7754 29.3097 36.0901 29.4795 36.3772 29.6989L35.4 28.944C35.5905 29.093 35.7644 29.2573 35.9162 29.4463L35.1612 28.4692C35.2786 28.621 35.3766 28.7825 35.4525 28.9591L34.9653 27.8053C35.0315 27.9682 35.0771 28.1338 35.1019 28.3077L34.9294 27.0242C34.957 27.2422 34.9528 27.4575 34.9239 27.6756L35.0964 26.392C35.0329 26.8171 34.8742 27.2132 34.7265 27.6135C34.5498 28.0965 34.3718 28.5796 34.1951 29.064C33.8363 30.0426 33.4788 31.0211 33.12 31.9997C32.412 33.9333 31.7026 35.8655 30.9931 37.7991C29.5661 41.6884 28.1376 45.5777 26.7077 49.4656C25.9017 51.6574 25.0957 53.8491 24.2897 56.0408L24.7769 54.8869L24.7714 54.8966L25.5263 53.9194L25.518 53.9277L26.4952 53.1728C26.4869 53.1797 26.4772 53.1852 26.4676 53.1893C26.8527 53.0265 27.2363 52.865 27.6214 52.7021C27.4779 52.7615 27.3205 52.7946 27.1728 52.8457C26.5449 52.9947 25.9969 53.2832 25.5305 53.7097C25.0046 54.0506 24.5892 54.5019 24.2869 55.065C23.9336 55.6198 23.7431 56.2188 23.7142 56.8606C23.5706 57.5023 23.5996 58.1441 23.8011 58.7873L24.2883 59.9411C24.7175 60.6671 25.2958 61.244 26.0218 61.6746L27.1756 62.1618C28.0313 62.3923 28.8884 62.3923 29.7441 62.1618C30.6964 61.8333 31.6432 61.5297 32.3554 60.7554C32.3664 60.7444 33.1048 59.7907 33.1145 59.7727C33.1476 59.7161 33.581 58.6755 33.6072 58.6092C33.6431 58.5154 33.6762 58.4202 33.7107 58.3263C33.7797 58.1372 33.8501 57.9495 33.9191 57.7604C34.1841 57.0414 34.4477 56.3223 34.7127 55.6046C35.2454 54.1555 35.7782 52.7063 36.3109 51.2571C37.3681 48.3822 38.424 45.506 39.4798 42.6311C40.5439 39.7313 41.608 36.8316 42.6707 33.9319C43.1952 32.4993 43.7417 31.0736 44.2455 29.6341C44.291 29.5043 44.3311 29.3718 44.3614 29.2379C44.4856 28.7052 44.5395 28.1462 44.5947 27.6038C44.6071 27.4865 44.614 27.3692 44.6099 27.2505C44.6085 27.1981 44.6043 27.1456 44.5988 27.0932C44.556 26.6198 44.4898 26.1229 44.4042 25.655C44.3863 25.5557 44.3601 25.4563 44.3269 25.3611C44.1585 24.8725 43.9612 24.388 43.7197 23.9298C43.6686 23.8318 43.6079 23.7394 43.543 23.6497C43.2849 23.2936 43.0006 22.9209 42.7177 22.5828C42.6735 22.529 42.6266 22.4765 42.5783 22.4268C42.1256 21.9562 41.5763 21.5684 41.038 21.2068C40.7716 21.0287 40.4859 20.8824 40.2058 20.7278C39.546 20.3621 38.8891 19.9881 38.2349 19.6127C36.9458 18.8729 35.6636 18.1235 34.3677 17.3975C32.8688 16.557 31.3423 15.6585 29.6917 15.1561C29.4267 15.0747 29.1561 15.0112 28.8815 14.9684C28.3598 14.8897 27.8312 14.7973 27.3026 14.7641C27.1839 14.7572 27.0652 14.7559 26.9465 14.7669C26.4938 14.8111 25.9887 14.8677 25.5429 14.956C25.5001 14.9643 25.4573 14.9739 25.4145 14.9864C25.398 14.9919 25.3814 14.9974 25.3635 15.0029C25.0888 15.0899 24.4415 15.3756 24.1779 15.5025C24.1323 15.5246 24.0909 15.5453 24.0482 15.5729C23.935 15.6433 23.1635 16.2478 23.0572 16.3375C23.0379 16.3541 23.0186 16.3679 23.0006 16.3845C22.9564 16.4245 22.915 16.4659 22.875 16.5087C22.8391 16.5487 22.8046 16.5901 22.7715 16.6315C22.4844 16.9835 22.1905 17.3506 21.9324 17.7232C21.568 18.2477 21.3168 18.9819 21.1015 19.5271C20.998 19.7893 20.9166 20.0598 20.8586 20.3359C20.8296 20.4698 20.8089 20.605 20.7896 20.7416C20.7137 21.2827 20.6171 21.8265 20.5839 22.373C20.566 22.6684 20.5867 22.9596 20.6102 23.2549C20.7316 24.7786 20.8558 26.3037 20.9828 27.8274C21.2395 30.8997 21.5045 33.9719 21.7764 37.0428C22.0469 40.1012 22.3216 43.1597 22.5962 46.2195C22.8681 49.2462 23.1317 52.2743 23.4188 55.2996C23.4878 56.0352 23.5582 56.7695 23.6272 57.5051C23.6024 58.1704 23.7404 58.79 24.0426 59.3656C24.2372 59.9646 24.5699 60.4821 25.0419 60.9196C25.4794 61.3903 25.9969 61.7243 26.5959 61.9189C27.1715 62.2211 27.7925 62.3605 28.4564 62.3343C28.8843 62.2763 29.3121 62.2198 29.74 62.1618C30.5584 61.9327 31.2692 61.5186 31.8709 60.9196L32.6259 59.9425C33.0634 59.1889 33.2828 58.376 33.2856 57.5037L33.2884 57.4996Z" fill="white"/>
<path d="M13.6331 57.1483C10.7927 52.2376 7.92884 47.3408 5.12986 42.4067C4.40803 41.1342 5.01255 40.3144 6.39961 40.3323C8.05995 40.3544 9.74927 40.4427 11.3585 40.803C11.9755 40.941 12.7925 41.8657 12.8629 42.5047C13.3929 47.2787 13.7587 52.0706 14.1755 56.8584C13.9947 56.955 13.8139 57.053 13.6331 57.1496V57.1483Z" fill="white"/>
<path d="M17.8041 54.7098C15.5226 50.7653 13.226 46.8305 10.9598 42.8763C10.6424 42.3229 10.3263 41.7694 10.0103 41.2146C9.71766 40.7025 9.37814 40.1933 9.1449 39.6509L9.63209 40.8047C9.56723 40.646 9.51754 40.4831 9.49408 40.3133L9.6666 41.5969C9.65418 41.4892 9.65142 41.3816 9.66384 41.2739L9.49132 42.5575C9.50374 42.4705 9.52582 42.3877 9.55894 42.3063L9.07175 43.4601C9.10211 43.3925 9.13799 43.329 9.18216 43.2683L8.42721 44.2454C8.48104 44.1764 8.54038 44.1171 8.60801 44.0619L7.63085 44.8168C7.71504 44.7533 7.80614 44.7009 7.90137 44.6581L6.74755 45.1453C6.91179 45.0763 7.08155 45.0349 7.25683 45.01C6.82898 45.068 6.40113 45.1246 5.97328 45.1826C6.26725 45.1453 6.56399 45.1605 6.85934 45.166C7.19886 45.1729 7.53976 45.1839 7.87928 45.2005C8.56937 45.2336 9.25807 45.2888 9.94401 45.3799C9.51616 45.322 9.08831 45.2654 8.66046 45.2074C8.95167 45.2474 9.24289 45.2916 9.53272 45.3454C9.77149 45.3896 10.0254 45.4227 10.2518 45.5138L9.09797 45.0266C9.24289 45.0901 9.374 45.1743 9.49822 45.2709L8.52106 44.5159C8.71014 44.6664 8.87576 44.8375 9.0262 45.0266L8.27125 44.0494C8.40237 44.2206 8.51554 44.4014 8.60111 44.6001L8.11391 43.4463C8.15394 43.5443 8.1843 43.6437 8.20224 43.7486L8.02972 42.465C8.27401 44.3227 8.42031 46.1997 8.59007 48.0657C8.75983 49.9317 8.91717 51.8032 9.07589 53.6733C9.1656 54.7333 9.25531 55.7933 9.34778 56.8532C10.1455 55.4634 10.9433 54.0722 11.7396 52.6824C11.5588 52.779 11.378 52.877 11.1972 52.9736C10.6341 53.2772 10.1828 53.6913 9.84188 54.2171C9.41541 54.6836 9.12695 55.2315 8.9779 55.8595C8.77639 56.5013 8.74741 57.1431 8.89094 57.7862C8.91993 58.4294 9.11177 59.0284 9.46371 59.5818L10.2187 60.559C10.8218 61.158 11.5326 61.572 12.3496 61.8011C12.7775 61.8591 13.2053 61.9157 13.6332 61.9737C14.5055 61.9709 15.3184 61.7514 16.0719 61.3139C16.2527 61.2173 16.4335 61.1193 16.6144 61.0227C17.3403 60.5935 17.9172 60.0152 18.3478 59.2892C18.7854 58.5357 19.0048 57.7227 19.0076 56.8505C18.7412 53.7962 18.4955 50.7405 18.2153 47.6862C18.0759 46.1708 17.9283 44.6567 17.7654 43.1454C17.7447 42.9522 17.724 42.759 17.7019 42.5658C17.6481 42.0993 17.6081 41.5997 17.5115 41.1414C17.499 41.0835 17.4852 41.0283 17.4659 40.9717C17.2685 40.392 17.0215 39.724 16.642 39.2092C16.3342 38.7896 16.0264 38.3521 15.6676 37.9712C15.5696 37.8677 15.4633 37.7725 15.3529 37.6827C14.9996 37.3984 14.6393 37.1045 14.2653 36.8464C14.2184 36.8132 14.1687 36.7829 14.119 36.7539C14.0721 36.7277 14.0238 36.7042 13.9741 36.6821C13.6291 36.5234 13.1405 36.3095 12.7844 36.1811C12.7554 36.1701 12.7264 36.1604 12.6961 36.1508C12.369 36.0555 12.0184 36.0072 11.683 35.9548C10.9115 35.8319 10.1359 35.727 9.35882 35.6456C8.63837 35.5697 7.91379 35.5311 7.19058 35.5104C6.8483 35.5007 6.5005 35.4786 6.15822 35.5007C5.62271 35.5352 5.08859 35.6111 4.56275 35.7119C4.44405 35.7339 4.3295 35.7685 4.2177 35.8112C3.20052 36.206 2.44695 36.5137 1.6713 37.3253C1.50844 37.4964 1.33868 37.7476 1.22137 37.8994C1.10405 38.0512 0.899787 38.2762 0.782473 38.4805C0.665159 38.6847 0.561646 38.9856 0.489878 39.1568C0.418109 39.3279 0.267671 39.6205 0.204183 39.8551C-0.106354 41.0034 -0.0166431 41.8067 0.193142 42.9536C0.213845 43.0654 0.245588 43.1744 0.285613 43.2807C0.445712 43.7099 0.636175 44.1474 0.825258 44.5642C0.857002 44.6333 0.888745 44.7009 0.92463 44.7671C1.28071 45.4324 1.66992 46.0824 2.04532 46.7366C2.80304 48.0616 3.56351 49.3852 4.32674 50.7074C5.84768 53.3407 7.3769 55.9699 8.90199 58.6019C9.08969 58.9276 9.27877 59.252 9.46647 59.5777C9.77011 60.1408 10.1842 60.5921 10.71 60.933C11.1765 61.3595 11.7244 61.6479 12.3524 61.797C12.9942 61.9985 13.636 62.0275 14.2791 61.8839C14.9223 61.855 15.5213 61.6631 16.0747 61.3112L17.0519 60.5562C17.6509 59.9531 18.0649 59.2423 18.294 58.4253L18.4665 57.1417C18.4638 56.2694 18.2443 55.4565 17.8068 54.7029L17.8041 54.7098Z" fill="white"/>
<path d="M61.5415 94.9261C67.1615 92.8518 72.402 90.8988 77.6549 88.979C99.9032 80.8485 122.158 72.7358 144.403 64.5901C146.371 63.8697 148.274 63.2224 150.103 64.8151C152.029 66.4934 151.617 68.5415 151.048 70.667C148.613 79.7706 146.235 88.8907 143.808 97.997C142.966 101.152 141.644 102.169 138.513 101.902C113.233 99.7319 87.9565 97.5278 62.6788 95.3264C62.4455 95.3057 62.2233 95.1704 61.5415 94.9261Z" fill="black"/>
<path d="M60.4082 114.138C61.021 114.276 61.6283 114.487 62.248 114.541C89.6939 116.912 117.14 119.279 144.589 121.613C146.84 121.805 148.726 122.42 149.73 124.638C150.746 126.884 149.927 128.711 148.475 130.444C142.883 137.126 137.343 143.85 131.721 150.506C129.37 153.292 127.353 153.621 124.311 151.869C103.272 139.752 82.2424 127.619 61.2128 115.489C60.9189 115.319 60.6539 115.097 60.3765 114.898C60.3875 114.646 60.3986 114.392 60.4096 114.139L60.4082 114.138Z" fill="black"/>
<path d="M52.3906 78.0123C54.131 76.2719 55.3124 75.0918 56.4911 73.9118C74.2911 56.0911 92.098 38.2759 109.879 20.4359C111.437 18.8735 112.97 17.4823 115.392 18.2952C117.77 19.093 118.298 21.0873 118.677 23.2625C120.099 31.4137 121.603 39.5512 123.039 47.7011C123.629 51.0549 122.837 52.6407 119.852 53.7338C97.9513 61.7484 76.037 69.7244 54.1241 77.7045C53.826 77.8135 53.4906 77.8218 52.3906 78.0109V78.0123Z" fill="black"/>
<path d="M42.396 64.1514C44.1502 59.3167 45.9071 54.4834 47.6586 49.6459C52.6009 35.9905 57.4909 22.3159 62.5533 8.70466C63.0971 7.24307 64.3931 5.5703 65.7539 5.01686C67.8283 4.17496 68.938 6.18862 70.0159 7.72888C73.2468 12.3428 76.5289 16.9222 79.7778 21.525C81.8812 24.5048 81.7914 25.5082 79.194 28.1125C67.6227 39.7101 56.0472 51.3035 44.4676 62.8927C43.9418 63.4186 43.3676 63.8961 42.8156 64.3957C42.6762 64.3143 42.5368 64.2329 42.396 64.1514Z" fill="black"/>
<path d="M28.4571 57.5C28.3012 55.8383 28.1452 54.229 28.0017 52.6183C27.1197 42.7308 26.2019 32.8461 25.4166 22.9503C25.331 21.8793 25.7133 20.386 26.4504 19.7676C26.979 19.3246 28.5841 19.7732 29.4909 20.2438C32.4499 21.7785 35.2917 23.5396 38.2176 25.142C39.6033 25.9011 40.1085 26.921 39.5674 28.4006C36.0356 38.0438 32.4955 47.6842 28.9485 57.3219C28.9291 57.373 28.7939 57.3827 28.4585 57.5H28.4571Z" fill="black"/>
<path d="M13.6331 57.1483C10.7927 52.2376 7.92884 47.3408 5.12986 42.4067C4.40803 41.1342 5.01255 40.3144 6.39961 40.3323C8.05995 40.3544 9.74927 40.4427 11.3585 40.803C11.9755 40.941 12.7925 41.8657 12.8629 42.5047C13.3929 47.2787 13.7587 52.0706 14.1755 56.8584C13.9947 56.955 13.8139 57.053 13.6331 57.1496V57.1483Z" fill="black"/>
</g>
<defs>
<clipPath id="clip0_1622_5101">
<rect width="156.352" height="157.741" fill="white"/>
</clipPath>
</defs>
</svg>
