<svg width="20" height="20" viewBox="0 0 20 20" fill="none" xmlns="http://www.w3.org/2000/svg">
<path d="M17.0833 18.9583H2.91666C2.57499 18.9583 2.29166 18.6749 2.29166 18.3333C2.29166 17.9916 2.57499 17.7083 2.91666 17.7083H17.0833C17.425 17.7083 17.7083 17.9916 17.7083 18.3333C17.7083 18.6749 17.425 18.9583 17.0833 18.9583Z" fill="currentColor"/>
<path d="M18.4572 2.91574C18.4572 3.07407 18.3989 3.23241 18.2739 3.35741L6.60719 15.0241C6.36552 15.2657 5.96552 15.2657 5.72385 15.0241C5.48219 14.7824 5.48219 14.3824 5.72385 14.1407L17.3905 2.47407C17.6322 2.23241 18.0322 2.23241 18.2739 2.47407C18.3989 2.59907 18.4572 2.75741 18.4572 2.91574Z" fill="currentColor"/>
<path d="M15.349 14.5823C15.349 14.9239 15.0656 15.2073 14.724 15.2073L6.16565 15.2073C5.82398 15.2073 5.54065 14.9239 5.54065 14.5823L5.54065 6.02394C5.54065 5.68227 5.82398 5.39894 6.16565 5.39894C6.50732 5.39894 6.79065 5.68227 6.79065 6.02394L6.79065 13.9573L14.724 13.9573C15.0656 13.9573 15.349 14.2406 15.349 14.5823Z" fill="currentColor"/>
</svg>
