<svg width="20" height="20" viewBox="0 0 20 20" fill="none" xmlns="http://www.w3.org/2000/svg">
<path d="M16.1833 9.79199H13.3333C12.9916 9.79199 12.7083 9.50866 12.7083 9.16699V3.34199C12.7083 2.72532 12.95 2.15033 13.3833 1.71699C13.8166 1.28366 14.3916 1.04199 15.0083 1.04199H15.0166C16.0583 1.05033 17.0417 1.45866 17.7917 2.20033C18.5417 2.95866 18.95 3.95866 18.95 5.00033V7.01699C18.9583 8.67532 17.8416 9.79199 16.1833 9.79199ZM13.9583 8.54199H16.1833C17.15 8.54199 17.7083 7.98366 17.7083 7.01699V5.00033C17.7083 4.28366 17.425 3.60033 16.9166 3.08366C16.4083 2.58366 15.725 2.30033 15.0166 2.29199C15.0166 2.29199 15.0166 2.29199 15.0083 2.29199C14.7333 2.29199 14.4666 2.40032 14.2666 2.60032C14.0666 2.80032 13.9583 3.05866 13.9583 3.34199V8.54199Z" fill="currentColor"/>
<path d="M7.49981 19.442C7.10814 19.4587 6.74147 19.292 6.46647 19.0087L5.08315 17.617C5.00815 17.542 4.89148 17.5337 4.80815 17.6003L3.38314 18.667C2.94147 19.0003 2.35814 19.0587 1.85814 18.8087C1.35814 18.5587 1.0498 18.0587 1.0498 17.5003V5.00033C1.0498 2.48366 2.49147 1.04199 5.00814 1.04199H15.0081C15.3498 1.04199 15.6331 1.32533 15.6331 1.66699C15.6331 2.00866 15.3498 2.29199 15.0081 2.29199C14.4331 2.29199 13.9665 2.75866 13.9665 3.33366V17.5003C13.9665 18.0587 13.6581 18.5587 13.1581 18.8087C12.6581 19.0587 12.0748 19.0087 11.6331 18.6753L10.2081 17.6087C10.1248 17.542 10.0081 17.5587 9.94147 17.6253L8.54148 19.0253C8.25814 19.292 7.89148 19.442 7.49981 19.442ZM4.92481 16.3087C5.30815 16.3087 5.68315 16.4503 5.96648 16.742L7.34982 18.1337C7.39982 18.1837 7.46648 18.192 7.49981 18.192C7.49981 18.1753 7.5998 18.1837 7.6498 18.1337L9.04981 16.7337C9.56648 16.217 10.3831 16.167 10.9581 16.6087L12.3748 17.667C12.4665 17.7337 12.5498 17.7087 12.5915 17.6837C12.6331 17.6587 12.7081 17.6087 12.7081 17.5003V3.33366C12.7081 2.95866 12.7998 2.60033 12.9581 2.29199H4.99981C3.14981 2.29199 2.29148 3.15033 2.29148 5.00033V17.5003C2.29148 17.617 2.36648 17.667 2.40814 17.692C2.45814 17.717 2.54147 17.7337 2.6248 17.667L4.04981 16.6003C4.30814 16.4087 4.61648 16.3087 4.92481 16.3087Z" fill="currentColor"/>
<path d="M9.79165 8.95801H5.20831C4.86665 8.95801 4.58331 8.67467 4.58331 8.33301C4.58331 7.99134 4.86665 7.70801 5.20831 7.70801H9.79165C10.1333 7.70801 10.4166 7.99134 10.4166 8.33301C10.4166 8.67467 10.1333 8.95801 9.79165 8.95801Z" fill="currentColor"/>
<path d="M7.5 11.2503C7.15833 11.2503 6.875 10.967 6.875 10.6253V6.04199C6.875 5.70033 7.15833 5.41699 7.5 5.41699C7.84167 5.41699 8.125 5.70033 8.125 6.04199V10.6253C8.125 10.967 7.84167 11.2503 7.5 11.2503Z" fill="currentColor"/>
</svg>
