<svg width="138" height="102" viewBox="0 0 138 102" fill="none" xmlns="http://www.w3.org/2000/svg">
<g clip-path="url(#clip0_1622_5078)">
<path d="M121.222 29.6195L85.6942 14.5036C82.7603 13.2553 81.0428 14.5912 82.9369 16.8016L89.8546 24.8757L1.95545 37.6942C-2.8707 38.3979 -5.89026 41.5718 -4.5592 44.8298L11.0664 83.0789C12.8893 87.542 18.8708 89.3912 24.1088 87.193L111.737 50.4156L120.973 61.1966C123.728 64.4123 127.517 64.7993 127.283 61.9256L124.966 33.5085C124.865 32.2713 123.053 30.3991 121.223 29.6192L121.222 29.6195Z" fill="white" stroke="white" stroke-width="7.13918" stroke-miterlimit="10"/>
<path d="M121.222 29.6195L85.6942 14.5036C82.7603 13.2553 81.0428 14.5912 82.9369 16.8016L89.8546 24.8757L1.95545 37.6942C-2.8707 38.3979 -5.89026 41.5718 -4.5592 44.8298L11.0664 83.0789C12.8893 87.542 18.8708 89.3912 24.1088 87.193L111.737 50.4156L120.973 61.1966C123.728 64.4123 127.517 64.7993 127.283 61.9256L124.966 33.5085C124.865 32.2713 123.053 30.3991 121.223 29.6192L121.222 29.6195Z" fill="black"/>
<path d="M39.8705 67.5683C34.2389 69.5169 28.4109 69.5256 24.3686 67.1905C22.3163 66.0288 20.8549 64.5937 19.924 62.8783L28.6632 60.3691C30.0068 62.6767 32.7641 62.9112 36.5775 61.7395C40.2357 60.6147 41.73 59.3516 40.7253 57.5641C39.9907 56.257 38.2579 55.968 35.785 56.2851L29.4777 57.0094C25.8038 57.4467 23.2545 57.2265 20.8937 56.4307C18.5138 55.6277 16.7252 54.166 15.6775 51.9642C14.1634 48.7855 15.418 45.767 18.9177 43.7061C20.6328 42.7264 22.6413 42.0316 24.9336 41.6106L25.1554 41.57C31.4731 40.4436 35.1901 41.1795 38.2304 43.0509C39.7288 44.0252 40.9714 45.1615 41.8863 46.4866L34.798 48.1133C33.5464 46.2133 31.4665 45.637 27.7964 46.415C25.3136 46.9409 24.2773 47.5029 23.702 48.3937C23.4114 48.8437 23.4077 49.35 23.6775 49.8772C24.4559 51.3988 26.337 51.4732 29.1569 51.2364L35.6524 50.6755C41.3477 50.1807 45.3631 51.4547 47.4333 54.9422C50.3237 59.8129 47.7561 64.8414 39.87 67.5706L39.8705 67.5683Z" fill="#FFD300"/>
<path d="M48.7682 53.0449C45.6637 47.8952 47.6162 43.3179 52.9113 42.1605C57.5992 41.1358 62.7527 43.0655 66.0703 47.0764L60.9104 48.4708C59.5782 46.7438 57.7946 46.238 55.8951 46.7146C53.7066 47.2638 53.203 48.7751 54.8332 51.3588C56.5167 54.028 58.4575 54.8578 60.7141 54.1657C62.6774 53.5646 63.238 52.3946 62.2576 50.5035L67.4126 49.0299C69.9651 53.6085 68.7721 57.5624 63.9483 59.2313C58.4752 61.1257 52.0645 58.5098 48.7687 53.0427L48.7682 53.0449Z" fill="#FFD300"/>
<path d="M67.163 45.4847C64.9543 41.9108 66.2393 39.34 69.8554 38.5478C73.6621 37.7135 77.2866 39.2254 80.5386 43.5354L80.7122 43.7656L82.8575 46.6084C83.1138 46.9484 83.5583 47.1355 83.8276 47.0536L84.4363 46.8675L87.4072 50.7767L84.4307 51.7994C83.3906 52.1567 82.2 51.4141 81.4859 50.4471L80.9998 49.788C81.2379 50.4592 81.2778 50.9954 81.1638 51.4136C80.9105 52.7253 80.1622 53.6235 78.9425 54.0464C76.0076 55.0624 72.7408 54.029 70.5305 50.8431C68.3542 47.7056 69.8208 45.5399 74.0759 44.4054C75.6519 43.9849 75.6117 43.5879 75.2094 43.0394L75.1134 42.9089C74.4846 42.0532 73.4693 41.6942 72.3146 41.9783C71.3335 42.2199 70.6713 42.8831 71.4931 44.3529L67.1642 45.4854L67.163 45.4847ZM77.7075 49.9105C78.7502 49.5843 79.1562 48.4154 77.9658 46.7939L77.6705 46.3919C77.828 46.6065 77.208 46.9817 76.0038 47.3331C74.8061 47.6816 74.2609 48.1763 74.9991 49.2086C75.7033 50.1933 76.703 50.2256 77.7078 49.9114L77.7075 49.9105Z" fill="#FFD300"/>
<path d="M92.2656 49.1069L88.4556 50.4156L78.1343 36.9277L82.0395 36.0671L83.2045 37.5526C83.1812 37.4203 83.1763 37.3113 83.153 37.179C83.1053 36.1005 83.7525 35.4224 85.0945 35.1289C86.5383 34.8134 87.8861 35.0628 89.1436 35.8497C90.38 36.6406 91.7917 38.0062 93.3979 39.9694L98.9855 46.7989L95.5812 47.9683L89.9505 40.938C88.4761 39.097 87.3171 38.5268 86.2416 38.7944C85.1928 39.0555 85.0917 39.9603 86.579 41.857L92.2646 49.1072L92.2656 49.1069Z" fill="#FFD300"/>
</g>
<defs>
<clipPath id="clip0_1622_5078">
<rect width="134.788" height="66.838" fill="white" transform="translate(-10.4609 37.3428) rotate(-16.0841)"/>
</clipPath>
</defs>
</svg>
