<svg width="21" height="20" viewBox="0 0 21 20" fill="none" xmlns="http://www.w3.org/2000/svg">
<path d="M1.91667 6.45841C1.57501 6.45841 1.29167 6.17508 1.29167 5.83341V5.41675C1.29167 3.00841 3.25834 1.04175 5.66667 1.04175H7.75001C8.09167 1.04175 8.37501 1.32508 8.37501 1.66675C8.37501 2.00841 8.09167 2.29175 7.75001 2.29175H5.66667C3.94167 2.29175 2.54167 3.69175 2.54167 5.41675V5.83341C2.54167 6.17508 2.25834 6.45841 1.91667 6.45841Z" fill="white"/>
<path d="M18.5833 6.45841C18.2417 6.45841 17.9583 6.17508 17.9583 5.83341V5.41675C17.9583 3.69175 16.5583 2.29175 14.8333 2.29175H12.75C12.4083 2.29175 12.125 2.00841 12.125 1.66675C12.125 1.32508 12.4083 1.04175 12.75 1.04175H14.8333C17.2417 1.04175 19.2083 3.00841 19.2083 5.41675V5.83341C19.2083 6.17508 18.925 6.45841 18.5833 6.45841Z" fill="white"/>
<path d="M14.8333 18.9584H12.75C12.4083 18.9584 12.125 18.6751 12.125 18.3334C12.125 17.9917 12.4083 17.7084 12.75 17.7084H14.8333C16.5583 17.7084 17.9583 16.3084 17.9583 14.5834V14.1667C17.9583 13.8251 18.2417 13.5417 18.5833 13.5417C18.925 13.5417 19.2083 13.8251 19.2083 14.1667V14.5834C19.2083 16.9917 17.2417 18.9584 14.8333 18.9584Z" fill="white"/>
<path d="M7.75001 18.9584H5.66667C3.25834 18.9584 1.29167 16.9917 1.29167 14.5834V14.1667C1.29167 13.8251 1.57501 13.5417 1.91667 13.5417C2.25834 13.5417 2.54167 13.8251 2.54167 14.1667V14.5834C2.54167 16.3084 3.94167 17.7084 5.66667 17.7084H7.75001C8.09167 17.7084 8.37501 17.9917 8.37501 18.3334C8.37501 18.6751 8.09167 18.9584 7.75001 18.9584Z" fill="white"/>
<path d="M19.75 10.75H0.75C0.34 10.75 0 10.41 0 10C0 9.59 0.34 9.25 0.75 9.25H19.75C20.16 9.25 20.5 9.59 20.5 10C20.5 10.41 20.16 10.75 19.75 10.75Z" fill="white"/>
</svg>
