<svg width="20" height="20" viewBox="0 0 20 20" fill="none" xmlns="http://www.w3.org/2000/svg">
<path d="M17.0833 18.9583H2.91666C2.575 18.9583 2.29166 18.6749 2.29166 18.3333C2.29166 17.9916 2.575 17.7083 2.91666 17.7083H17.0833C17.425 17.7083 17.7083 17.9916 17.7083 18.3333C17.7083 18.6749 17.425 18.9583 17.0833 18.9583Z" fill="currentColor"/>
<path d="M15.8333 15.2083C15.675 15.2083 15.5166 15.15 15.3916 15.025L3.72495 3.35828C3.48328 3.11662 3.48328 2.71662 3.72495 2.47495C3.96662 2.23328 4.36662 2.23328 4.60828 2.47495L16.2749 14.1416C16.5166 14.3833 16.5166 14.7833 16.2749 15.025C16.1499 15.15 15.9916 15.2083 15.8333 15.2083Z" fill="currentColor"/>
<path d="M4.16666 12.1001C3.825 12.1001 3.54166 11.8167 3.54166 11.4751V2.91675C3.54166 2.57508 3.825 2.29175 4.16666 2.29175H12.725C13.0667 2.29175 13.35 2.57508 13.35 2.91675C13.35 3.25841 13.0667 3.54175 12.725 3.54175H4.79166V11.4751C4.79166 11.8167 4.50833 12.1001 4.16666 12.1001Z" fill="currentColor"/>
</svg>
