<svg width="20" height="20" viewBox="0 0 20 20" fill="none" xmlns="http://www.w3.org/2000/svg">
<g>
<path d="M10 13.125C8.275 13.125 6.875 11.725 6.875 10C6.875 8.275 8.275 6.875 10 6.875C11.725 6.875 13.125 8.275 13.125 10C13.125 11.725 11.725 13.125 10 13.125ZM10 8.125C8.96667 8.125 8.125 8.96667 8.125 10C8.125 11.0333 8.96667 11.875 10 11.875C11.0333 11.875 11.875 11.0333 11.875 10C11.875 8.96667 11.0333 8.125 10 8.125Z" fill="currentColor"/>
<path d="M12.675 18.4917C12.5 18.4917 12.325 18.4667 12.15 18.4251C11.6334 18.2834 11.2 17.9584 10.925 17.5001L10.825 17.3334C10.3334 16.4834 9.65835 16.4834 9.16669 17.3334L9.07502 17.4917C8.80002 17.9584 8.36669 18.2917 7.85002 18.4251C7.32502 18.5667 6.78335 18.4917 6.32502 18.2167L4.89169 17.3917C4.38335 17.1001 4.01669 16.6251 3.85835 16.0501C3.70835 15.4751 3.78335 14.8834 4.07502 14.3751C4.31669 13.9501 4.38335 13.5667 4.24169 13.3251C4.10002 13.0834 3.74169 12.9417 3.25002 12.9417C2.03335 12.9417 1.04169 11.9501 1.04169 10.7334V9.26674C1.04169 8.05008 2.03335 7.05841 3.25002 7.05841C3.74169 7.05841 4.10002 6.91674 4.24169 6.67508C4.38335 6.43341 4.32502 6.05008 4.07502 5.62508C3.78335 5.11674 3.70835 4.51674 3.85835 3.95008C4.00835 3.37508 4.37502 2.90008 4.89169 2.60841L6.33335 1.78341C7.27502 1.22508 8.51669 1.55008 9.08335 2.50841L9.18335 2.67508C9.67502 3.52508 10.35 3.52508 10.8417 2.67508L10.9334 2.51674C11.5 1.55008 12.7417 1.22508 13.6917 1.79174L15.125 2.61674C15.6334 2.90841 16 3.38341 16.1584 3.95841C16.3084 4.53341 16.2334 5.12508 15.9417 5.63341C15.7 6.05841 15.6334 6.44174 15.775 6.68341C15.9167 6.92508 16.275 7.06674 16.7667 7.06674C17.9834 7.06674 18.975 8.05841 18.975 9.27508V10.7417C18.975 11.9584 17.9834 12.9501 16.7667 12.9501C16.275 12.9501 15.9167 13.0917 15.775 13.3334C15.6334 13.5751 15.6917 13.9584 15.9417 14.3834C16.2334 14.8917 16.3167 15.4917 16.1584 16.0584C16.0084 16.6334 15.6417 17.1084 15.125 17.4001L13.6834 18.2251C13.3667 18.4001 13.025 18.4917 12.675 18.4917ZM10 15.4084C10.7417 15.4084 11.4334 15.8751 11.9084 16.7001L12 16.8584C12.1 17.0334 12.2667 17.1584 12.4667 17.2084C12.6667 17.2584 12.8667 17.2334 13.0334 17.1334L14.475 16.3001C14.6917 16.1751 14.8584 15.9667 14.925 15.7167C14.9917 15.4667 14.9584 15.2084 14.8334 14.9917C14.3584 14.1751 14.3 13.3334 14.6667 12.6917C15.0334 12.0501 15.7917 11.6834 16.7417 11.6834C17.275 11.6834 17.7 11.2584 17.7 10.7251V9.25841C17.7 8.73341 17.275 8.30008 16.7417 8.30008C15.7917 8.30008 15.0334 7.93341 14.6667 7.29174C14.3 6.65008 14.3584 5.80841 14.8334 4.99174C14.9584 4.77508 14.9917 4.51674 14.925 4.26674C14.8584 4.01674 14.7 3.81674 14.4834 3.68341L13.0417 2.85841C12.6834 2.64174 12.2084 2.76674 11.9917 3.13341L11.9 3.29174C11.425 4.11674 10.7334 4.58341 9.99169 4.58341C9.25002 4.58341 8.55835 4.11674 8.08335 3.29174L7.99169 3.12508C7.78335 2.77508 7.31669 2.65008 6.95835 2.85841L5.51669 3.69174C5.30002 3.81674 5.13335 4.02508 5.06669 4.27508C5.00002 4.52508 5.03335 4.78341 5.15835 5.00008C5.63335 5.81674 5.69169 6.65841 5.32502 7.30008C4.95835 7.94174 4.20002 8.30841 3.25002 8.30841C2.71669 8.30841 2.29169 8.73341 2.29169 9.26674V10.7334C2.29169 11.2584 2.71669 11.6917 3.25002 11.6917C4.20002 11.6917 4.95835 12.0584 5.32502 12.7001C5.69169 13.3417 5.63335 14.1834 5.15835 15.0001C5.03335 15.2167 5.00002 15.4751 5.06669 15.7251C5.13335 15.9751 5.29169 16.1751 5.50835 16.3084L6.95002 17.1334C7.12502 17.2417 7.33335 17.2667 7.52502 17.2167C7.72502 17.1667 7.89169 17.0334 8.00002 16.8584L8.09169 16.7001C8.56669 15.8834 9.25835 15.4084 10 15.4084Z" fill="currentColor"/>
</g>
</svg>
