<svg width="19" height="20" viewBox="0 0 19 20" fill="none" xmlns="http://www.w3.org/2000/svg">
<path d="M6.90464 11.5473C6.05086 13.026 4.15776 13.5333 2.67897 12.6795C1.20018 11.8257 0.692923 9.93263 1.5467 8.45384C2.40048 6.97505 4.29358 6.4678 5.77237 7.32158C7.25116 8.17536 7.75842 10.0685 6.90464 11.5473ZM2.61829 9.07253C2.10685 9.95837 2.4118 11.0965 3.29765 11.6079C4.1835 12.1194 5.32161 11.8144 5.83305 10.9286C6.3445 10.0427 6.03954 8.90461 5.15369 8.39317C4.26785 7.88172 3.12973 8.18668 2.61829 9.07253Z" fill="white"/>
<path d="M16.9061 17.3217C16.0523 18.8005 14.1592 19.3077 12.6804 18.4539C11.2016 17.6001 10.6944 15.707 11.5482 14.2283C12.4019 12.7495 14.295 12.2422 15.7738 13.096C17.2526 13.9498 17.7599 15.8429 16.9061 17.3217ZM12.6198 14.8469C12.1083 15.7328 12.4133 16.8709 13.2991 17.3823C14.185 17.8938 15.3231 17.5888 15.8345 16.703C16.346 15.8171 16.041 14.679 15.1552 14.1676C14.2693 13.6561 13.1312 13.9611 12.6198 14.8469Z" fill="white"/>
<path d="M11.7746 15.0728C12.0675 15.2419 12.4506 15.1393 12.6197 14.8464C12.7888 14.5535 12.6862 14.1704 12.3933 14.0013L9.34997 12.2442L6.67816 10.7016C6.38526 10.5325 6.00213 10.6352 5.83302 10.9281C5.66392 11.221 5.76657 11.6041 6.05948 11.7732L11.7746 15.0728Z" fill="white"/>
<path d="M11.5484 5.77238C10.6946 4.29358 11.2019 2.40048 12.6807 1.5467C14.1594 0.692923 16.0525 1.20018 16.9063 2.67897C17.7601 4.15776 17.2528 6.05086 15.7741 6.90464C14.2953 7.75842 12.4022 7.25117 11.5484 5.77238ZM15.8347 3.29765C15.3233 2.4118 14.1852 2.10685 13.2993 2.61829C12.4135 3.12973 12.1085 4.26785 12.62 5.15369C13.1314 6.03954 14.2695 6.3445 15.1554 5.83305C16.0412 5.32161 16.3462 4.1835 15.8347 3.29765Z" fill="white"/>
<path d="M6.05962 8.22714C5.76672 8.39624 5.66406 8.77937 5.83317 9.07227C6.00227 9.36517 6.3854 9.46783 6.6783 9.29873L9.72162 7.54167L12.3934 5.99909C12.6863 5.82999 12.789 5.44686 12.6199 5.15396C12.4508 4.86106 12.0677 4.7584 11.7748 4.9275L6.05962 8.22714Z" fill="white"/>
</svg>
