<svg width="20" height="22" viewBox="0 0 20 22" fill="none" xmlns="http://www.w3.org/2000/svg">
<g>
<path d="M4.64167 17.1656C2.69167 17.1656 1.04167 15.5156 1.04167 13.5656V9.43227C1 6.99894 1.9 4.70727 3.58333 2.99061C5.26667 1.28228 7.525 0.332275 9.95833 0.332275C14.925 0.332275 18.9583 4.37394 18.9583 9.33228V13.4656C18.9583 15.4489 17.3417 17.0656 15.3583 17.0656C13.4083 17.0656 11.7583 15.4156 11.7583 13.4656V12.1239C11.7583 10.9156 12.7083 9.96561 13.9167 9.96561C15.125 9.96561 16.075 10.9156 16.075 12.1239V13.6489C16.075 13.9906 15.7917 14.2739 15.45 14.2739C15.1083 14.2739 14.825 13.9906 14.825 13.6489V12.1239C14.825 11.5573 14.3667 11.2156 13.9167 11.2156C13.35 11.2156 13.0083 11.6739 13.0083 12.1239V13.4656C13.0083 14.7406 14.0833 15.8156 15.3583 15.8156C16.6333 15.8156 17.7083 14.7406 17.7083 13.4656V9.33228C17.7083 5.05728 14.2333 1.58228 9.95833 1.58228C7.86667 1.58228 5.925 2.39061 4.475 3.86561C3.025 5.34061 2.25 7.31561 2.29167 9.41561V13.5656C2.29167 14.8406 3.36667 15.9156 4.64167 15.9156C5.91667 15.9156 6.99167 14.8406 6.99167 13.5656V12.2239C6.99167 11.6573 6.53333 11.3156 6.08333 11.3156C5.51667 11.3156 5.175 11.7739 5.175 12.2239V13.6573C5.175 13.9989 4.89167 14.2823 4.55 14.2823C4.20833 14.2823 3.925 13.9989 3.925 13.6573V12.2239C3.925 11.0156 4.875 10.0656 6.08333 10.0656C7.29167 10.0656 8.24167 11.0156 8.24167 12.2239V13.5656C8.24167 15.5156 6.59167 17.1656 4.64167 17.1656Z" fill="currentColor"/>
<path d="M12.6081 19.9584C12.6081 19.6737 12.8442 19.4376 13.1289 19.4376L13.4761 19.4376C14.9136 19.4376 15.247 18.2709 15.247 16.8334L15.247 16.764C15.247 16.4793 15.4831 16.2432 15.7678 16.2432C16.0525 16.2432 16.2886 16.4793 16.2886 16.764L16.2886 16.8334C16.2886 18.8404 15.4831 20.4793 13.4761 20.4793L13.1289 20.4793C12.8442 20.4793 12.6081 20.2432 12.6081 19.9584Z" fill="currentColor"/>
<path d="M8.21999 19.8755C8.21999 18.8422 9.06166 18.0005 10.095 18.0005L11.7617 18.0005C12.795 18.0005 13.6367 18.8422 13.6367 19.8755C13.6367 20.9088 12.795 21.7505 11.7617 21.7505L10.095 21.7505C9.06166 21.7505 8.21999 20.9088 8.21999 19.8755ZM12.3867 19.8755C12.3867 19.5338 12.1033 19.2505 11.7617 19.2505L10.095 19.2505C9.75332 19.2505 9.46999 19.5338 9.46999 19.8755C9.46999 20.2172 9.75332 20.5005 10.095 20.5005L11.7617 20.5005C12.1033 20.5005 12.3867 20.2172 12.3867 19.8755Z" fill="currentColor"/>
</g>
</svg>
