<svg width="15" height="21" viewBox="0 0 15 21" fill="none" xmlns="http://www.w3.org/2000/svg">
<path d="M10.25 20.5H4.52907C1.26814 20.5 0 19.2319 0 15.9709V4.52907C0 1.26814 1.26814 0 4.52907 0H10.25C13.5109 0 14.7791 1.26814 14.7791 4.52907V15.9709C14.7791 19.2319 13.5109 20.5 10.25 20.5ZM4.52907 1.43023C2.06907 1.43023 1.43023 2.06907 1.43023 4.52907V15.9709C1.43023 18.4309 2.06907 19.0698 4.52907 19.0698H10.25C12.71 19.0698 13.3488 18.4309 13.3488 15.9709V4.52907C13.3488 2.06907 12.71 1.43023 10.25 1.43023H4.52907Z" fill="white"/>
<path d="M9.77327 17.9693H5.00583C4.6149 17.9693 4.29071 17.6451 4.29071 17.2542C4.29071 16.8632 4.6149 16.5391 5.00583 16.5391H9.77327C10.1642 16.5391 10.4884 16.8632 10.4884 17.2542C10.4884 17.6451 10.1642 17.9693 9.77327 17.9693Z" fill="white"/>
</svg>
