<svg width="20" height="20" viewBox="0 0 20 20" fill="none" xmlns="http://www.w3.org/2000/svg">
<path d="M12.9083 17.2999C12.75 17.2999 12.5917 17.2415 12.4667 17.1165C12.225 16.8749 12.225 16.4749 12.4667 16.2332L16.6416 12.0582C16.8833 11.8165 17.2833 11.8165 17.525 12.0582C17.7667 12.2999 17.7667 12.6999 17.525 12.9415L13.35 17.1165C13.225 17.2332 13.0667 17.2999 12.9083 17.2999Z" fill="currentColor"/>
<path d="M17.0834 13.1167H2.91669C2.57502 13.1167 2.29169 12.8334 2.29169 12.4917C2.29169 12.15 2.57502 11.8667 2.91669 11.8667H17.0834C17.425 11.8667 17.7084 12.15 17.7084 12.4917C17.7084 12.8334 17.425 13.1167 17.0834 13.1167Z" fill="currentColor"/>
<path d="M2.91668 8.13337C2.75835 8.13337 2.60001 8.07503 2.47501 7.95003C2.23335 7.70837 2.23335 7.30837 2.47501 7.0667L6.65001 2.8917C6.89168 2.65003 7.29168 2.65003 7.53334 2.8917C7.77501 3.13337 7.77501 3.53337 7.53334 3.77503L3.35835 7.95003C3.24168 8.0667 3.07501 8.13337 2.91668 8.13337Z" fill="currentColor"/>
<path d="M17.0834 8.1333H2.91669C2.57502 8.1333 2.29169 7.84997 2.29169 7.5083C2.29169 7.16663 2.57502 6.8833 2.91669 6.8833H17.0834C17.425 6.8833 17.7084 7.16663 17.7084 7.5083C17.7084 7.84997 17.425 8.1333 17.0834 8.1333Z" fill="currentColor"/>
</svg>
