<svg width="20" height="21" viewBox="0 0 20 21" fill="none" xmlns="http://www.w3.org/2000/svg">
<path d="M4.43025 16.6987C4.93719 15.5043 6.12077 14.6667 7.5 14.6667H12.5C13.8792 14.6667 15.0628 15.5043 15.5698 16.6987M13.3333 8.41666C13.3333 10.2576 11.841 11.75 10 11.75C8.15905 11.75 6.66667 10.2576 6.66667 8.41666C6.66667 6.57572 8.15905 5.08333 10 5.08333C11.841 5.08333 13.3333 6.57572 13.3333 8.41666ZM18.3333 10.5C18.3333 15.1024 14.6024 18.8333 10 18.8333C5.39763 18.8333 1.66667 15.1024 1.66667 10.5C1.66667 5.89762 5.39763 2.16666 10 2.16666C14.6024 2.16666 18.3333 5.89762 18.3333 10.5Z" stroke="white" stroke-width="1.2" stroke-linecap="round" stroke-linejoin="round"/>
</svg>
