<svg width="20" height="20" viewBox="0 0 20 20" fill="none" xmlns="http://www.w3.org/2000/svg">
<path d="M14.7833 18.9585H6.35835C6.09168 18.9585 5.85834 18.7918 5.76668 18.5501C5.67501 18.3001 5.75001 18.0251 5.95001 17.8584C6.15001 17.6918 6.33334 17.4751 6.46667 17.2418C6.73334 16.8168 6.86668 16.3335 6.86668 15.8418C6.86668 14.3501 5.65001 13.1335 4.15835 13.1335C3.54168 13.1335 2.95835 13.3418 2.46668 13.7334C2.28335 13.8834 2.02501 13.9085 1.80834 13.8085C1.59168 13.7085 1.45834 13.4835 1.45834 13.2418V9.60014C1.45834 7.52514 3.14167 5.8418 5.21667 5.8418H14.7833C16.8583 5.8418 18.5417 7.52514 18.5417 9.60014V10.8001C18.5417 11.1418 18.2583 11.4251 17.9167 11.4251H16.2333C15.9417 11.4251 15.675 11.5335 15.4833 11.7335L15.475 11.7418C15.2417 11.9668 15.1333 12.2751 15.1583 12.5918C15.2083 13.1418 15.7333 13.5834 16.3333 13.5834H17.9167C18.2583 13.5834 18.5417 13.8668 18.5417 14.2084V15.2001C18.5417 17.2751 16.8583 18.9585 14.7833 18.9585ZM7.65 17.7085H14.7833C16.1667 17.7085 17.2917 16.5834 17.2917 15.2001V14.8334H16.3333C15.075 14.8334 14.0083 13.9001 13.9083 12.7001C13.8417 12.0168 14.0917 11.3418 14.5917 10.8501C15.025 10.4085 15.6083 10.1668 16.2333 10.1668H17.2917V9.5918C17.2917 8.20846 16.1667 7.08346 14.7833 7.08346H5.21667C3.83334 7.08346 2.70834 8.20846 2.70834 9.5918V12.1585C3.17501 11.9751 3.66668 11.8751 4.16668 11.8751C6.35001 11.8751 8.12501 13.6501 8.12501 15.8335C8.12501 16.4918 7.95834 17.1418 7.65 17.7085Z" fill="white"/>
<path d="M2.08334 10.9668C1.74168 10.9668 1.45834 10.6834 1.45834 10.3418V6.53347C1.45834 5.2918 2.24168 4.16675 3.40001 3.72509L10.0167 1.22509C10.7 0.966752 11.4583 1.05846 12.05 1.47513C12.65 1.89179 13 2.56679 13 3.29179V6.45844C13 6.80011 12.7167 7.08344 12.375 7.08344C12.0333 7.08344 11.75 6.80011 11.75 6.45844V3.29179C11.75 2.97512 11.6 2.68344 11.3333 2.50011C11.0667 2.31678 10.75 2.27511 10.45 2.39177L3.83335 4.89177C3.15835 5.15011 2.70001 5.80847 2.70001 6.53347V10.3418C2.70835 10.6918 2.42501 10.9668 2.08334 10.9668Z" fill="white"/>
<path d="M16.3333 14.8332C15.075 14.8332 14.0083 13.8998 13.9083 12.6998C13.8416 12.0082 14.0916 11.3332 14.5916 10.8415C15.0166 10.4082 15.6 10.1665 16.225 10.1665H17.9583C18.7833 10.1915 19.4166 10.8415 19.4166 11.6415V13.3582C19.4166 14.1582 18.7833 14.8082 17.9833 14.8332H16.3333ZM17.9416 11.4165H16.2333C15.9416 11.4165 15.675 11.5248 15.4833 11.7248C15.2416 11.9582 15.125 12.2748 15.1583 12.5915C15.2083 13.1415 15.7333 13.5832 16.3333 13.5832H17.9666C18.075 13.5832 18.175 13.4832 18.175 13.3582V11.6415C18.175 11.5165 18.075 11.4248 17.9416 11.4165Z" fill="white"/>
<path d="M11.6666 10.625H5.83331C5.49165 10.625 5.20831 10.3417 5.20831 10C5.20831 9.65833 5.49165 9.375 5.83331 9.375H11.6666C12.0083 9.375 12.2916 9.65833 12.2916 10C12.2916 10.3417 12.0083 10.625 11.6666 10.625Z" fill="white"/>
<path d="M4.16668 19.7917C2.78334 19.7917 1.48335 19.0583 0.783346 17.8667C0.408346 17.2667 0.208344 16.5583 0.208344 15.8333C0.208344 14.6167 0.750009 13.4916 1.69168 12.7416C2.39168 12.1833 3.27501 11.875 4.16668 11.875C6.35001 11.875 8.12501 13.65 8.12501 15.8333C8.12501 16.5583 7.92501 17.2667 7.55001 17.875C7.35001 18.225 7.07501 18.5417 6.75834 18.8083C6.06668 19.4417 5.14168 19.7917 4.16668 19.7917ZM4.16668 13.125C3.55001 13.125 2.96668 13.3333 2.47501 13.725C1.83334 14.2333 1.45834 15.0083 1.45834 15.8333C1.45834 16.325 1.59168 16.8083 1.85001 17.225C2.34168 18.0583 3.20834 18.5417 4.16668 18.5417C4.82501 18.5417 5.45835 18.3 5.94168 17.8667C6.15835 17.6833 6.34168 17.4667 6.47501 17.2333C6.74168 16.8083 6.87501 16.325 6.87501 15.8333C6.87501 14.3417 5.65834 13.125 4.16668 13.125Z" fill="white"/>
<path d="M6.02157 16.2265H2.32425C2.19793 16.2265 2.09317 16.0482 2.09317 15.8332C2.09317 15.6182 2.19793 15.4399 2.32425 15.4399H6.02157C6.1479 15.4399 6.25265 15.6182 6.25265 15.8332C6.25265 16.0482 6.1479 16.2265 6.02157 16.2265Z" fill="white"/>
<path d="M3.77969 17.6821L3.77969 13.9847C3.77969 13.8584 3.95797 13.7537 4.17296 13.7537C4.38794 13.7537 4.56622 13.8584 4.56622 13.9847L4.56622 17.6821C4.56622 17.8084 4.38794 17.9131 4.17296 17.9131C3.95797 17.9131 3.77969 17.8084 3.77969 17.6821Z" fill="white"/>
</svg>
