<svg width="24" height="24" viewBox="0 0 24 24" fill="none" xmlns="http://www.w3.org/2000/svg">
<path d="M12 9V13" stroke="#FFD300" stroke-width="2" stroke-linecap="round" stroke-linejoin="round"/>
<path d="M12 17H12.01" stroke="#FFD300" stroke-width="2" stroke-linecap="round" stroke-linejoin="round"/>
<path d="M10.29 3.86L1.82 18C1.64537 18.3024 1.55299 18.6453 1.55201 18.9945C1.55103 19.3437 1.64151 19.6871 1.81445 19.9905C1.98738 20.2939 2.23675 20.5467 2.53773 20.7238C2.83871 20.9009 3.18082 20.9962 3.53 21H20.47C20.8192 20.9962 21.1613 20.9009 21.4623 20.7238C21.7633 20.5467 22.0126 20.2939 22.1856 19.9905C22.3585 19.6871 22.449 19.3437 22.448 18.9945C22.447 18.6453 22.3546 18.3024 22.18 18L13.71 3.86C13.5318 3.56611 13.2807 3.32312 12.9812 3.15447C12.6817 2.98582 12.3438 2.89725 12 2.89725C11.6562 2.89725 11.3183 2.98582 11.0188 3.15447C10.7193 3.32312 10.4682 3.56611 10.29 3.86Z" stroke="#FFD300" stroke-width="2" stroke-linecap="round" stroke-linejoin="round" fill="none"/>
</svg>

