<svg width="20" height="20" viewBox="0 0 20 20" fill="none" xmlns="http://www.w3.org/2000/svg">
<path d="M14.7833 18.9585H6.35831C6.09164 18.9585 5.85831 18.7918 5.76664 18.5501C5.67498 18.3001 5.74998 18.0251 5.94998 17.8584C6.14998 17.6918 6.33331 17.4751 6.46665 17.2418C6.73331 16.8168 6.86664 16.3335 6.86664 15.8418C6.86664 14.3501 5.64998 13.1335 4.15831 13.1335C3.54164 13.1335 2.95831 13.3418 2.46665 13.7334C2.27498 13.8834 2.02498 13.9085 1.80831 13.8085C1.59164 13.7085 1.45831 13.4835 1.45831 13.2418V9.60014C1.45831 7.52514 3.14165 5.8418 5.21665 5.8418H14.7833C16.8583 5.8418 18.5416 7.52514 18.5416 9.60014V10.8001C18.5416 11.1418 18.2583 11.4251 17.9166 11.4251H16.2333C15.9416 11.4251 15.675 11.5335 15.4833 11.7335L15.475 11.7418C15.2416 11.9668 15.1333 12.2751 15.1583 12.5918C15.2083 13.1418 15.7333 13.5834 16.3333 13.5834H17.9166C18.2583 13.5834 18.5416 13.8668 18.5416 14.2084V15.2001C18.5416 17.2751 16.8583 18.9585 14.7833 18.9585ZM7.64998 17.7085H14.7833C16.1666 17.7085 17.2916 16.5834 17.2916 15.2001V14.8334H16.3333C15.075 14.8334 14.0083 13.9001 13.9083 12.7001C13.8416 12.0168 14.0916 11.3418 14.5916 10.8501C15.025 10.4085 15.6083 10.1668 16.2333 10.1668H17.2916V9.5918C17.2916 8.20846 16.1666 7.08346 14.7833 7.08346H5.21665C3.83331 7.08346 2.70831 8.20846 2.70831 9.5918V12.1585C3.17498 11.9751 3.66665 11.8751 4.16665 11.8751C6.34998 11.8751 8.12498 13.6501 8.12498 15.8335C8.12498 16.4918 7.95831 17.1418 7.64998 17.7085Z" fill="currentColor"/>
<path d="M2.08331 10.9665C1.74165 10.9665 1.45831 10.6832 1.45831 10.3415V6.53322C1.45831 5.29155 2.24165 4.16651 3.39998 3.72484L10.0166 1.22484C10.6916 0.966508 11.4583 1.05822 12.05 1.47488C12.65 1.89155 13 2.56654 13 3.29154V6.4582C13 6.79987 12.7166 7.0832 12.375 7.0832C12.0333 7.0832 11.75 6.79987 11.75 6.4582V3.29154C11.75 2.97488 11.6 2.6832 11.3333 2.49987C11.0666 2.31653 10.75 2.27486 10.45 2.39153L3.83331 4.89153C3.15831 5.14986 2.69998 5.80822 2.69998 6.53322V10.3415C2.70831 10.6915 2.42498 10.9665 2.08331 10.9665Z" fill="currentColor"/>
<path d="M16.3333 14.8332C15.075 14.8332 14.0083 13.8998 13.9083 12.6998C13.8416 12.0082 14.0916 11.3332 14.5916 10.8415C15.0166 10.4082 15.6 10.1665 16.225 10.1665H17.9583C18.7833 10.1915 19.4166 10.8415 19.4166 11.6415V13.3582C19.4166 14.1582 18.7833 14.8082 17.9833 14.8332H16.3333ZM17.9416 11.4165H16.2333C15.9416 11.4165 15.675 11.5248 15.4833 11.7248C15.2416 11.9582 15.125 12.2748 15.1583 12.5915C15.2083 13.1415 15.7333 13.5832 16.3333 13.5832H17.9666C18.075 13.5832 18.175 13.4832 18.175 13.3582V11.6415C18.175 11.5165 18.075 11.4248 17.9416 11.4165Z" fill="currentColor"/>
<path d="M11.6666 10.625H5.83331C5.49165 10.625 5.20831 10.3417 5.20831 10C5.20831 9.65833 5.49165 9.375 5.83331 9.375H11.6666C12.0083 9.375 12.2916 9.65833 12.2916 10C12.2916 10.3417 12.0083 10.625 11.6666 10.625Z" fill="currentColor"/>
<path d="M4.16665 19.7917C2.78331 19.7917 1.48331 19.0583 0.783315 17.8667C0.408315 17.2667 0.208313 16.5583 0.208313 15.8333C0.208313 14.6167 0.749979 13.4916 1.69165 12.7416C2.39165 12.1833 3.27498 11.875 4.16665 11.875C6.34998 11.875 8.12498 13.65 8.12498 15.8333C8.12498 16.5583 7.92498 17.2667 7.54998 17.875C7.34998 18.225 7.07498 18.5417 6.75831 18.8083C6.06665 19.4417 5.14165 19.7917 4.16665 19.7917ZM4.16665 13.125C3.54998 13.125 2.96665 13.3333 2.47498 13.725C1.83331 14.2333 1.45831 15.0083 1.45831 15.8333C1.45831 16.325 1.59165 16.8083 1.84998 17.225C2.34165 18.0583 3.20831 18.5417 4.16665 18.5417C4.82498 18.5417 5.45831 18.3 5.94164 17.8667C6.15831 17.6833 6.34164 17.4667 6.47498 17.2333C6.74164 16.8083 6.87498 16.325 6.87498 15.8333C6.87498 14.3417 5.65831 13.125 4.16665 13.125Z" fill="currentColor"/>
<path d="M5.40835 16.4414H2.91669C2.57502 16.4414 2.29169 16.1581 2.29169 15.8164C2.29169 15.4747 2.57502 15.1914 2.91669 15.1914H5.40835C5.75002 15.1914 6.03335 15.4747 6.03335 15.8164C6.03335 16.1581 5.75835 16.4414 5.40835 16.4414Z" fill="currentColor"/>
</svg>
